<svg width="24" height="24" viewBox="0 0 24 24" fill="none" xmlns="http://www.w3.org/2000/svg">
<path d="M9 12V14H6V12H9Z" fill="#1A1B21"/>
<path d="M18 12V14H10V12H18Z" fill="#1A1B21"/>
<path d="M14 16V18H6V16H14Z" fill="#1A1B21"/>
<path d="M18 16V18H15V16H18Z" fill="#1A1B21"/>
<path fill-rule="evenodd" clip-rule="evenodd" d="M16 4H8V2H6V4H5C3.89543 4 3 4.89543 3 6V20L3.01074 20.2041C3.1062 21.1457 3.85435 21.8938 4.7959 21.9893L5 22H19L19.2041 21.9893C20.2128 21.887 21 21.0357 21 20V6C21 4.89543 20.1046 4 19 4H18V2H16V4ZM5 10H19V20H5V10ZM5 6H19V8H5V6Z" fill="#1A1B21"/>
</svg>
