<svg width="24" height="24" viewBox="0 0 24 24" fill="none" xmlns="http://www.w3.org/2000/svg">
<path fill-rule="evenodd" clip-rule="evenodd" d="M11.5 7.5V4.5H13.5V7.5H11.5ZM11 3C10.7167 3 10.4792 3.09584 10.2875 3.2875C10.0958 3.47916 10 3.71668 10 4V8C10 8.28332 10.0958 8.52084 10.2875 8.7125C10.4792 8.90416 10.7167 9 11 9H14C14.2833 9 14.5208 8.90416 14.7125 8.7125C14.9042 8.52084 15 8.28332 15 8V4C15 3.71668 14.9042 3.47916 14.7125 3.2875C14.5208 3.09584 14.2833 3 14 3H11Z" fill="#1A1B21"/>
<path fill-rule="evenodd" clip-rule="evenodd" d="M7.5 3H3.5V9H7.5C7.78333 9 8.02083 8.90416 8.2125 8.7125C8.40417 8.52084 8.5 8.28332 8.5 8V4C8.5 3.71668 8.40417 3.47916 8.2125 3.2875C8.02083 3.09584 7.78333 3 7.5 3ZM7 4.5V7.5H5V4.5H7Z" fill="#1A1B21"/>
<path fill-rule="evenodd" clip-rule="evenodd" d="M16.5 9H20V7.5H19V4.5H20V3H16.5V4.5H17.5L17.5 7.5L16.5 7.5V9Z" fill="#1A1B21"/>
<path d="M11 21H7C5.61667 21 4.4375 20.5125 3.4625 19.5375C2.4875 18.5625 2 17.3834 2 16C2 14.6167 2.4875 13.4375 3.4625 12.4625C4.4375 11.4875 5.61667 11 7 11H11V13H7C6.16667 13 5.45833 13.2917 4.875 13.875C4.29167 14.4584 4 15.1667 4 16C4 16.8334 4.29167 17.5417 4.875 18.125C5.45833 18.7084 6.16667 19 7 19H11V21ZM8 17V15H16V17H8ZM13 21V19H17C17.8333 19 18.5417 18.7084 19.125 18.125C19.7083 17.5417 20 16.8334 20 16C20 15.1667 19.7083 14.4584 19.125 13.875C18.5417 13.2917 17.8333 13 17 13H13V11H17C18.3833 11 19.5625 11.4875 20.5375 12.4625C21.5125 13.4375 22 14.6167 22 16C22 17.3834 21.5125 18.5625 20.5375 19.5375C19.5625 20.5125 18.3833 21 17 21H13Z" fill="#1A1B21"/>
</svg>
