<svg width="128" height="128" viewBox="0 0 128 128" fill="none" xmlns="http://www.w3.org/2000/svg">
<path d="M64.5819 4.5514L123.428 63.4078L124 63.9796L123.428 64.5514L64.5819 123.428L64.0102 124L63.4385 123.428L4.57172 64.5718L4 64L4.57172 63.4282L63.4181 4.57182L63.9898 4L64.5819 4.5514ZM121.713 63.9796L64.0102 6.28727L6.3073 63.9796L64.0102 121.692L121.713 63.9796Z" fill="white"/>
<path d="M64.4898 28C74.2913 28 83.174 31.9819 89.6063 38.3937C96.0385 44.826 100 53.6882 100 63.4898C100 73.2913 96.0181 82.174 89.6063 88.6063C83.174 95.0385 74.3118 99 64.5102 99C54.7087 99 45.826 95.0181 39.3937 88.6063C32.9615 82.174 29 73.3118 29 63.5102C29 53.7087 32.9819 44.826 39.3937 38.3937C45.8056 31.9615 54.6882 28 64.4898 28ZM64.4898 29.1435C55.015 29.1435 46.4182 32.9825 40.2105 39.2105C33.9825 45.4386 30.1435 54.015 30.1435 63.4898C30.1435 72.9646 33.9825 81.5614 40.2105 87.7691C46.4386 93.9971 55.015 97.8361 64.4898 97.8361C73.9646 97.8361 82.5614 93.9971 88.7691 87.7691C94.9971 81.541 98.8361 72.9646 98.8361 63.4898C98.8361 54.015 94.9971 45.4182 88.7691 39.2105C82.5614 32.9825 73.9646 29.1435 64.4898 29.1435Z" fill="white"/>
<path d="M37.711 69.9224C37.8335 70.2695 37.9356 70.6371 38.0377 70.9843C36.833 71.3519 35.6283 71.7195 34.4236 72.1075C34.5257 72.4547 34.6482 72.8223 34.7503 73.1695C34.9341 73.1286 35.0974 73.0878 35.2404 73.0469C35.3833 73.0061 35.5466 72.9653 35.6896 72.9448C36.0775 72.8427 36.4451 72.7815 36.7309 72.7406C37.0372 72.6998 37.2822 72.6793 37.4864 72.6998C37.711 72.6998 37.8744 72.7202 37.9969 72.761C38.1398 72.8019 38.2419 72.8427 38.3236 72.8836C38.4461 72.9448 38.5686 73.0265 38.6707 73.1491C38.7728 73.2716 38.834 73.3941 38.8749 73.5166C38.8953 73.5983 38.9361 73.7004 38.9565 73.823C38.977 73.9251 38.9974 74.0068 38.9974 74.0272C38.6707 74.1293 38.3236 74.2314 37.9969 74.3335C37.9969 74.3131 37.9969 74.3131 37.9969 74.2927C37.9969 74.2723 37.9969 74.2518 37.9765 74.2314C37.9765 74.211 37.9765 74.1906 37.956 74.1497C37.9356 74.1089 37.9152 74.0476 37.8744 73.9659C37.8335 73.9047 37.7927 73.8434 37.7314 73.823C37.5681 73.7209 37.3231 73.7004 37.0168 73.7413C36.7105 73.7821 36.2817 73.8638 35.7508 74.0068C35.5058 74.068 35.2608 74.1293 35.077 74.1906C34.8933 74.2518 34.587 74.3335 34.2194 74.4356C33.8927 73.3941 33.5865 72.3526 33.2598 71.3111C34.7503 70.8414 36.2205 70.3921 37.711 69.9224Z" fill="white"/>
<path d="M37.0576 65.2661C37.0985 65.6337 37.1189 66.0013 37.1597 66.3689C36.1592 66.4914 35.1383 66.614 34.1378 66.7161C35.1996 67.1654 36.2817 67.6147 37.3435 68.0639C37.3843 68.4111 37.4252 68.7583 37.4456 69.085C35.9142 69.2688 34.3624 69.4526 32.831 69.6364C32.7902 69.2688 32.7697 68.9012 32.7289 68.5336C33.6477 68.4315 34.5666 68.3294 35.4854 68.2069C34.5257 67.7984 33.5457 67.3696 32.586 66.9611C32.5451 66.5731 32.5043 66.1851 32.4839 65.7971C33.9949 65.6337 35.5263 65.4499 37.0576 65.2661Z" fill="white"/>
<path d="M37.3639 59.8134C37.3231 60.181 37.3027 60.5486 37.2823 60.9162C36.2613 60.8754 35.2404 60.855 34.2399 60.8141C34.8729 61.1 35.5058 61.4064 36.1592 61.6923C36.1388 61.9373 36.1184 62.2028 36.098 62.4479C35.4242 62.693 34.7503 62.938 34.0765 63.1831C35.0975 63.2239 36.1184 63.2443 37.1393 63.2852C37.1189 63.6324 37.0781 64 37.0781 64.3471C35.5467 64.3063 34.0153 64.245 32.4839 64.1838C32.5043 63.7549 32.5451 63.326 32.5656 62.8972C33.3415 62.5908 34.1174 62.2845 34.9137 61.9782C34.1786 61.631 33.4436 61.2634 32.7085 60.9162C32.7289 60.4874 32.7697 60.0585 32.8106 59.6296C34.3011 59.7113 35.8121 59.7726 37.3639 59.8134Z" fill="white"/>
<path d="M38.6299 55.2185C38.5278 55.5861 38.4257 55.9537 38.3236 56.3008C37.6702 56.1375 37.0168 55.9945 36.3634 55.8311C36.2205 56.3213 36.098 56.8114 35.9346 57.3015C36.588 57.4649 37.2414 57.6283 37.8948 57.7712C37.7927 58.1388 37.6702 58.5064 37.5681 58.8536C36.098 58.5064 34.6279 58.1388 33.1577 57.7712C33.2598 57.4036 33.3619 57.0565 33.464 56.6889C33.9949 56.8114 34.5258 56.9544 35.0771 57.0769C35.22 56.5868 35.3629 56.0966 35.5059 55.6065C34.975 55.484 34.4237 55.341 33.8928 55.2185C33.9949 54.8509 34.097 54.5037 34.1991 54.1361C35.6896 54.5037 37.1598 54.8509 38.6299 55.2185Z" fill="white"/>
<path d="M38.7728 49.7454C39.4262 50.0517 39.855 50.4602 40.0796 50.9911C40.2837 51.5221 40.2225 52.0735 39.9162 52.6862C39.6099 53.2988 39.1811 53.6868 38.6298 53.8502C38.0581 54.0136 37.466 53.9523 36.8126 53.646C36.1592 53.3397 35.7304 52.9312 35.5262 52.4002C35.322 51.8897 35.3833 51.3179 35.6896 50.7052C35.9958 50.113 36.4246 49.7045 36.9759 49.5412C37.5068 49.3778 38.1194 49.439 38.7728 49.7454ZM38.2419 50.7869C37.9969 50.6848 37.7723 50.6031 37.5885 50.5827C37.3843 50.5623 37.221 50.5623 37.0576 50.5827C36.8943 50.6235 36.7717 50.6848 36.6697 50.7665C36.5676 50.8482 36.4859 50.9503 36.4246 51.0728C36.3634 51.1953 36.3225 51.3179 36.3225 51.4404C36.3021 51.5629 36.343 51.7059 36.4042 51.8489C36.4655 51.9918 36.588 52.1143 36.7309 52.2369C36.8738 52.3798 37.078 52.5024 37.323 52.6045C37.5681 52.727 37.7927 52.7883 37.9764 52.8087C38.1602 52.8291 38.3236 52.8291 38.4869 52.8087C38.6503 52.7678 38.7728 52.7066 38.8749 52.6249C38.977 52.5432 39.0586 52.4411 39.1199 52.3186C39.1811 52.196 39.222 52.0735 39.222 51.9305C39.222 51.7876 39.2016 51.6651 39.1199 51.5221C39.0382 51.3791 38.9361 51.2566 38.8136 51.1341C38.6911 51.032 38.5073 50.9094 38.2419 50.7869Z" fill="white"/>
<path d="M43.4486 46.9475C43.224 47.2539 42.979 47.5602 42.7544 47.8461C41.7743 47.1517 40.8146 46.437 39.8549 45.7222C39.6303 46.0285 39.3853 46.3349 39.1607 46.6208C39.2832 46.7229 39.4261 46.825 39.5282 46.9271C39.6508 47.0292 39.7528 47.1109 39.8754 47.1926C40.1816 47.4376 40.4267 47.6623 40.6104 47.8665C40.8146 48.0707 40.9575 48.2545 41.0596 48.4179C41.1617 48.5813 41.2638 48.7447 41.3047 48.8468C41.3455 48.9693 41.3659 49.0714 41.3863 49.1735C41.4067 49.3165 41.4067 49.4594 41.3455 49.6024C41.3047 49.7453 41.2434 49.8883 41.1413 49.9904C41.08 50.0721 40.9984 50.1334 40.9371 50.2355C40.8759 50.3172 40.8146 50.3784 40.7942 50.3988C40.5287 50.215 40.2633 50.0108 39.9979 49.827C39.9979 49.827 40.0183 49.8066 40.0183 49.7862C40.0387 49.7658 40.0387 49.7453 40.0591 49.7453C40.0795 49.7249 40.0795 49.7045 40.1204 49.6841C40.1612 49.6432 40.1816 49.582 40.2225 49.5207C40.2633 49.439 40.2633 49.3777 40.2633 49.3369C40.2429 49.1327 40.1408 48.9489 39.9366 48.7242C39.7324 48.52 39.4261 48.2341 39.0178 47.9074C38.834 47.744 38.6502 47.6214 38.5073 47.4989C38.344 47.3764 38.1398 47.213 37.8335 46.9884C38.5073 46.1102 39.1811 45.2116 39.8754 44.3335C41.0596 45.2116 42.2643 46.0898 43.4486 46.9475Z" fill="white"/>
<path d="M45.5926 41.8012C46.0826 42.3322 46.3277 42.8631 46.3073 43.4349C46.2868 44.0068 46.0418 44.5173 45.5313 44.9666C45.0209 45.4159 44.4696 45.6201 43.9183 45.5793C43.3466 45.5384 42.8157 45.2525 42.346 44.742C41.8764 44.2314 41.6314 43.68 41.6518 43.1082C41.6518 42.5364 41.9173 42.0258 42.4277 41.5765C42.9382 41.1273 43.4691 40.9026 44.0408 40.9435C44.5717 40.9843 45.1026 41.2702 45.5926 41.8012ZM44.7146 42.5772C44.5308 42.3934 44.3675 42.23 44.2041 42.1484C44.0408 42.0462 43.8774 41.985 43.7345 41.9646C43.5916 41.9441 43.4282 41.9441 43.3057 41.985C43.1832 42.0258 43.0811 42.0871 42.9586 42.1892C42.8565 42.2709 42.7748 42.373 42.7136 42.4955C42.6523 42.6181 42.6319 42.7406 42.6523 42.904C42.6523 43.0469 42.7136 43.2103 42.7953 43.3941C42.8769 43.5779 43.0199 43.7617 43.2036 43.9455C43.3874 44.1497 43.5507 44.2927 43.7141 44.3948C43.8774 44.4969 44.0204 44.5377 44.1837 44.5786C44.3471 44.599 44.4696 44.599 44.6125 44.5582C44.735 44.5173 44.8575 44.456 44.9596 44.3539C45.0617 44.2722 45.1434 44.1497 45.1842 44.0272C45.2455 43.9047 45.2659 43.7617 45.2455 43.6187C45.2251 43.4554 45.1842 43.292 45.1026 43.1286C45.0413 42.9652 44.8984 42.8019 44.7146 42.5772Z" fill="white"/>
<path d="M48.0837 38.3295C47.5528 38.6971 47.0423 39.0443 46.5115 39.4119C47.1853 40.3921 47.8591 41.3724 48.5329 42.373C48.2062 42.5977 47.8999 42.8019 47.5936 43.0061C46.7565 41.8012 45.9193 40.5759 45.0822 39.3506C45.9193 38.7788 46.7565 38.2069 47.5936 37.6351C47.757 37.8598 47.9203 38.1048 48.0837 38.3295Z" fill="white"/>
<path d="M53.9642 39.2893C53.6171 39.4526 53.2904 39.616 52.9637 39.7998C52.5349 38.9217 52.0857 38.0639 51.6569 37.1858C51.5752 38.309 51.4936 39.4527 51.4119 40.5759C51.1056 40.7392 50.7789 40.8822 50.4726 41.0456C49.8192 39.7181 49.1658 38.3907 48.5125 37.0837C48.8391 36.9203 49.1863 36.7569 49.513 36.5731C49.8805 37.3696 50.2889 38.1456 50.6768 38.9421C50.7585 37.921 50.8402 36.8999 50.9218 35.8584C51.269 35.6746 51.6161 35.5112 51.9632 35.3274C52.637 36.6344 53.3108 37.9618 53.9642 39.2893Z" fill="white"/>
<path d="M58.2522 38.0231C57.8846 38.1252 57.5171 38.2273 57.1495 38.309C57.0066 37.7781 56.8841 37.2471 56.7412 36.7161C56.5574 36.8182 56.3736 36.8999 56.2307 36.9612C56.0878 37.0224 55.8836 37.0837 55.6386 37.1654C55.4548 37.2062 55.271 37.2267 55.1077 37.2267C54.9443 37.2267 54.7606 37.1858 54.6176 37.1041C54.4747 37.0224 54.3318 36.9203 54.2297 36.7978C54.1276 36.6549 54.0459 36.4711 53.9847 36.2668C53.8417 35.7359 53.7192 35.2049 53.5763 34.6739C53.9438 34.5718 54.2909 34.4901 54.6789 34.388C54.7606 34.7352 54.8422 35.0619 54.9443 35.4091C54.9852 35.5929 55.0464 35.7359 55.0873 35.838C55.1281 35.9401 55.1894 36.0218 55.271 36.1035C55.3527 36.1647 55.4344 36.226 55.5569 36.226C55.6794 36.2464 55.8223 36.226 56.0265 36.1647C56.0878 36.1443 56.1899 36.1239 56.292 36.083C56.4145 36.0422 56.4961 36.0013 56.5574 35.9809C56.3736 35.3274 56.2103 34.6739 56.0469 34.0204C56.4145 33.9183 56.7616 33.8162 57.1495 33.7345C57.4967 35.1436 57.8642 36.5936 58.2522 38.0231Z" fill="white"/>
<path d="M59.1914 37.8189C59.0076 36.3485 58.8239 34.8781 58.6605 33.4078C59.661 33.2852 60.6615 33.1627 61.6621 33.0402C61.6825 33.3261 61.7233 33.612 61.7641 33.8775C61.1312 33.9592 60.4982 34.0204 59.8652 34.1021C59.8856 34.3676 59.9265 34.6127 59.9469 34.8781C60.5186 34.8169 61.1107 34.7352 61.6825 34.6739C61.7233 34.9598 61.7437 35.2253 61.7846 35.5112C61.2128 35.5929 60.6207 35.6542 60.049 35.7359C60.0898 36.1035 60.1307 36.4711 60.1919 36.8387C60.8249 36.757 61.4579 36.6957 62.0908 36.614C62.1113 36.8999 62.1521 37.1654 62.1929 37.4513C61.172 37.5739 60.1715 37.6964 59.1914 37.8189Z" fill="white"/>
<path d="M64.8269 37.5125C64.1531 37.4921 63.6222 37.2879 63.2342 36.8794C62.8463 36.471 62.6625 35.8992 62.6829 35.164C62.7033 34.4492 62.9075 33.8978 63.2955 33.4894C63.7039 33.0809 64.2347 32.8767 64.9086 32.8767C65.0719 32.8767 65.2353 32.8971 65.3782 32.9176C65.5211 32.938 65.664 32.9788 65.7866 33.0197C65.8886 33.0401 65.9907 33.1014 66.1133 33.1422C66.2358 33.2035 66.3174 33.2443 66.3991 33.2852C66.3991 33.6323 66.3991 33.9999 66.3787 34.3471C66.3379 34.3471 66.3174 34.3471 66.2766 34.3471C66.2153 34.3063 66.1541 34.245 66.0724 34.1633C65.9907 34.102 65.9091 34.0203 65.807 33.9591C65.7049 33.8978 65.5824 33.8365 65.4599 33.7957C65.3373 33.7549 65.1944 33.7344 65.0719 33.714C64.9086 33.714 64.7656 33.7344 64.6227 33.7753C64.4798 33.8161 64.3573 33.9182 64.2347 34.0408C64.1326 34.1429 64.0306 34.3063 63.9489 34.4901C63.8672 34.6739 63.8468 34.8985 63.8264 35.164C63.8264 35.4499 63.8468 35.6745 63.9285 35.8583C63.9897 36.0421 64.0918 36.2055 64.2143 36.3076C64.3368 36.4301 64.4593 36.5118 64.6023 36.5527C64.7452 36.5935 64.8881 36.6344 65.0311 36.6344C65.1944 36.6344 65.3169 36.6139 65.4599 36.5731C65.6028 36.5323 65.7049 36.471 65.807 36.4097C65.9091 36.3485 65.9907 36.2872 66.0724 36.2259C66.1541 36.1647 66.2153 36.1034 66.2766 36.0626C66.3174 36.0626 66.3379 36.0626 66.3787 36.0626C66.3787 36.4097 66.3583 36.7569 66.3583 37.1041C66.2766 37.1449 66.1745 37.1858 66.0724 37.2266C65.9499 37.2675 65.8478 37.3083 65.7253 37.3491C65.5824 37.39 65.4599 37.4104 65.3373 37.4308C65.2148 37.5125 65.0515 37.5125 64.8269 37.5125Z" fill="white"/>
<path d="M70.9117 38.2069C70.4625 38.1252 70.0337 38.0639 69.6049 37.9822C69.2987 37.3287 69.0128 36.6548 68.7269 36.0013C68.6248 35.9809 68.5432 35.9809 68.4615 35.9605C68.3594 36.5527 68.2573 37.1449 68.1552 37.7372C67.7877 37.6759 67.4201 37.6146 67.0526 37.533C67.3181 36.083 67.5631 34.6126 67.8081 33.1422C68.1756 33.2035 68.5432 33.2647 68.9107 33.3464C68.8086 33.9387 68.7065 34.5309 68.6044 35.1232C68.7678 35.1436 68.9107 35.1232 69.0128 35.0823C69.1149 35.021 69.2374 34.8985 69.4007 34.6943C69.4416 34.633 69.5028 34.5513 69.5641 34.4696C69.6254 34.388 69.6866 34.3063 69.7274 34.245C69.9112 33.9999 70.095 33.8366 70.2992 33.7549C70.5034 33.6732 70.7484 33.6528 71.0547 33.714C71.1567 33.7345 71.2384 33.7549 71.2997 33.7549C71.3609 33.7753 71.4222 33.7753 71.463 33.7753C71.4018 34.0816 71.3609 34.4084 71.2997 34.7147C71.218 34.6943 71.1363 34.6739 71.0342 34.6739C70.9117 34.6534 70.7892 34.6739 70.6871 34.7351C70.585 34.7964 70.4625 34.9394 70.3196 35.1436C70.2175 35.307 70.1154 35.4499 70.0337 35.5316C69.9521 35.6133 69.8704 35.6745 69.8091 35.695C70.1358 36.5323 70.5238 37.3696 70.9117 38.2069Z" fill="white"/>
<path d="M74.9341 39.7182C74.5869 39.5957 74.2398 39.4527 73.8927 39.3302C74.2398 38.4112 74.5665 37.5126 74.9136 36.5936C74.0356 37.3084 73.1576 38.0232 72.2796 38.7175C71.953 38.595 71.6263 38.4725 71.2996 38.3499C71.81 36.9612 72.3409 35.5725 72.8718 34.1838C73.2189 34.3064 73.5456 34.4493 73.9131 34.5719C73.6069 35.3887 73.3006 36.226 72.9943 37.0429C73.7906 36.4098 74.6074 35.7768 75.4037 35.1233C75.7712 35.2662 76.1183 35.4092 76.5063 35.5317C75.9754 36.9408 75.4445 38.3295 74.9341 39.7182Z" fill="white"/>
<path d="M79.1404 41.985C78.8137 41.8012 78.4666 41.6378 78.1603 41.454C78.6299 40.5963 79.0995 39.7386 79.5487 38.8809C78.5687 39.4731 77.609 40.0449 76.6493 40.6167C76.3226 40.4534 76.0163 40.29 75.7305 40.1062C76.4247 38.7992 77.1394 37.5126 77.854 36.2056C78.1807 36.3894 78.5074 36.5527 78.8341 36.7365C78.4053 37.5126 77.9969 38.2886 77.5886 39.0647C78.4666 38.5541 79.365 38.0231 80.243 37.5126C80.5901 37.6964 80.9372 37.8802 81.2843 38.064C80.5493 39.3914 79.8346 40.678 79.1404 41.985ZM81.6314 36.6344C81.4681 36.9408 81.2027 37.1246 80.876 37.1858C80.5493 37.2471 80.1409 37.145 79.6713 36.8999C79.2016 36.6344 78.8954 36.3485 78.7728 36.0422C78.6503 35.7154 78.6503 35.4091 78.8341 35.1028C79.12 35.2662 79.4058 35.4091 79.6917 35.5725C79.5896 35.7563 79.5487 35.9197 79.5896 36.0626C79.6304 36.1852 79.7325 36.3077 79.9367 36.4098C80.1205 36.5119 80.3042 36.5527 80.4063 36.5119C80.5288 36.4711 80.6513 36.3485 80.7534 36.1647C81.0393 36.3281 81.3456 36.4915 81.6314 36.6344Z" fill="white"/>
<path d="M84.0816 46.4778C83.8161 46.2123 83.5507 45.9469 83.2853 45.6814C83.9795 45.0074 84.6941 44.3335 85.3884 43.6392C84.2858 43.9047 83.1832 44.1701 82.0601 44.456C81.8151 44.211 81.5701 43.9659 81.3251 43.7209C82.3868 42.6997 83.4486 41.6582 84.49 40.6167C84.7554 40.8822 85.0208 41.1477 85.2863 41.4132C84.6533 42.0258 84.0203 42.6385 83.4078 43.2511C84.4083 43.0265 85.4292 42.7814 86.4297 42.5364C86.7156 42.8223 86.981 43.0878 87.2669 43.3737C86.1847 44.4152 85.1229 45.4567 84.0816 46.4778Z" fill="white"/>
<path d="M86.981 50.2356C86.736 49.9293 86.5114 49.6229 86.2868 49.337C86.8177 48.949 87.3486 48.561 87.8795 48.173C87.5528 47.7645 87.2465 47.3561 86.9402 46.9477C86.4093 47.3357 85.8784 47.7237 85.3476 48.1117C85.1229 47.8054 84.8779 47.4991 84.6533 47.2131C85.858 46.335 87.0423 45.4773 88.247 44.5991C88.492 44.9055 88.7166 45.2118 88.9412 45.5181C88.5124 45.8449 88.0632 46.1512 87.6344 46.4779C87.9407 46.8864 88.2674 47.2948 88.5737 47.7033C89.0025 47.3765 89.4517 47.0702 89.8805 46.7434C90.1051 47.0498 90.3501 47.3561 90.5747 47.6624C89.37 48.4793 88.1857 49.3575 86.981 50.2356Z" fill="white"/>
<path d="M88.1858 52.8699C87.8795 52.2573 87.8387 51.7059 88.0225 51.1749C88.2062 50.6439 88.635 50.2355 89.3088 49.9292C89.9622 49.6228 90.5544 49.5616 91.1057 49.7454C91.6774 49.9292 92.1062 50.3172 92.4125 50.9298C92.4941 51.0932 92.5554 51.2362 92.5962 51.3791C92.6371 51.5221 92.6779 51.6446 92.6983 51.7876C92.7187 51.8897 92.7392 52.0122 92.7392 52.1347C92.7392 52.2573 92.7596 52.3798 92.7596 52.4615C92.4329 52.6044 92.1062 52.7678 91.7795 52.9108C91.7591 52.8699 91.7387 52.8495 91.7182 52.8087C91.7387 52.7474 91.7591 52.6453 91.7795 52.5636C91.7999 52.4615 91.8203 52.339 91.8407 52.2368C91.8407 52.1143 91.8407 51.9918 91.8203 51.8488C91.7999 51.7263 91.7591 51.5833 91.6978 51.4608C91.6161 51.3179 91.5345 51.1953 91.4324 51.0932C91.3303 50.9911 91.1874 50.9094 91.024 50.8481C90.8811 50.7869 90.6769 50.7869 90.4727 50.7869C90.2685 50.8073 90.0439 50.8686 89.7989 50.9707C89.5334 51.0932 89.3497 51.2157 89.2067 51.3587C89.0638 51.5017 88.9617 51.6446 88.9209 51.808C88.88 51.9509 88.8596 52.1143 88.8801 52.2573C88.9005 52.4002 88.9413 52.5432 89.0026 52.6657C89.0638 52.7882 89.1455 52.9108 89.268 53.0129C89.3701 53.115 89.4722 53.1967 89.5743 53.2579C89.6764 53.3192 89.7785 53.3805 89.8601 53.4213C89.9418 53.4622 90.0439 53.503 90.1052 53.5234C90.1256 53.5643 90.1256 53.5847 90.146 53.6255C89.8193 53.7685 89.513 53.9319 89.1863 54.0748C89.1047 54.0136 89.023 53.9523 88.9413 53.8706C88.8392 53.7889 88.7575 53.7277 88.6759 53.6255C88.5738 53.5234 88.4921 53.4213 88.4104 53.3192C88.3696 53.2171 88.2879 53.0537 88.1858 52.8699Z" fill="white"/>
<path d="M89.4722 55.6066C90.6564 55.2798 91.8203 54.9531 93.0046 54.6059C92.8616 54.1771 92.7187 53.7686 92.5962 53.3398C92.8616 53.2581 93.1475 53.1968 93.4334 53.1151C93.8213 54.32 94.2093 55.5249 94.6176 56.7298C94.3522 56.8115 94.0663 56.8932 93.7805 56.9749C93.6376 56.546 93.515 56.1376 93.3721 55.7087C92.1878 56.0355 91.024 56.3622 89.8397 56.7094C89.7172 56.3418 89.5947 55.9742 89.4722 55.6066Z" fill="white"/>
<path d="M90.9422 62.2232C90.881 61.8556 90.8197 61.5084 90.7585 61.1408C91.759 60.9978 92.7595 60.8753 93.7396 60.7324C92.637 60.3035 91.5548 59.8746 90.4522 59.4458C90.3909 59.0986 90.3297 58.7718 90.2684 58.4247C91.7794 58.2205 93.2904 58.0162 94.8014 57.812C94.8626 58.1796 94.9239 58.5472 95.0055 58.9148C94.1071 59.0373 93.2087 59.1599 92.3103 59.2824C93.2904 59.6908 94.2909 60.0789 95.2914 60.4873C95.3527 60.8753 95.4343 61.2633 95.516 61.6309C93.9642 61.8147 92.4532 62.019 90.9422 62.2232Z" fill="white"/>
<path d="M90.9014 63.9999C92.1265 64.0203 93.372 64.0407 94.6175 64.0612C94.5971 63.6323 94.5971 63.183 94.5971 62.7542C94.883 62.7542 95.1688 62.7541 95.4751 62.7746C95.4955 64.0203 95.516 65.2865 95.5364 66.5322C95.2301 66.5322 94.9442 66.5322 94.6584 66.5118C94.6584 66.0829 94.638 65.6337 94.638 65.2048C93.3924 65.1844 92.1469 65.1639 90.9014 65.1435C90.9014 64.7351 90.9014 64.3675 90.9014 63.9999Z" fill="white"/>
<path d="M94.781 71.3315C93.6376 70.6371 92.4737 69.9428 91.3303 69.2484C91.1261 69.1259 90.9832 69.0034 90.8811 68.8604C90.7586 68.7379 90.6973 68.5949 90.6565 68.4724C90.6156 68.3499 90.5952 68.2069 90.5952 68.1048C90.5952 67.9823 90.5952 67.8597 90.6156 67.7168C90.6361 67.5738 90.6565 67.4309 90.6973 67.2471C90.7381 67.0633 90.7586 66.9407 90.779 66.8999C91.1057 66.9612 91.4324 67.002 91.7387 67.0633C91.7387 67.0837 91.7387 67.1041 91.7387 67.1245C91.7387 67.145 91.7182 67.1654 91.6978 67.2062C91.6774 67.2471 91.6774 67.2879 91.657 67.3492C91.6366 67.39 91.6366 67.4513 91.6161 67.4921C91.6161 67.5534 91.5957 67.5943 91.5753 67.6351C91.5549 67.7576 91.5549 67.9006 91.5753 68.0231C91.5957 68.1456 91.6366 68.2273 91.7182 68.2886C92.9434 67.9414 94.1685 67.5943 95.3936 67.2471C95.3323 67.6555 95.2711 68.0435 95.2302 68.4316C94.4543 68.6154 93.6988 68.8196 92.9229 69.0034C93.5967 69.3914 94.2706 69.7794 94.9444 70.1674C94.8831 70.5759 94.8219 70.9435 94.781 71.3315Z" fill="white"/>
<path d="M89.6968 71.7195C90.9015 72.0871 92.1062 72.4547 93.3109 72.8427C93.4334 72.4342 93.5559 72.0054 93.6989 71.5969C93.9847 71.6786 94.2706 71.7807 94.5564 71.8624C94.1889 73.0469 93.8214 74.2518 93.4538 75.4363C93.168 75.3546 92.8821 75.2729 92.5963 75.1708C92.7392 74.7623 92.8617 74.3335 92.9842 73.925C91.7795 73.5574 90.5748 73.1898 89.3701 72.8222C89.4722 72.4342 89.5947 72.0666 89.6968 71.7195Z" fill="white"/>
<path d="M54.8626 95.307C54.1888 95.307 53.658 95.1027 53.27 94.6943C52.882 94.2858 52.6779 93.714 52.6779 92.9993C52.6779 92.2845 52.882 91.7331 53.27 91.3042C53.658 90.8754 54.1888 90.6711 54.8626 90.6711C55.0464 90.6711 55.2098 90.6711 55.3323 90.6916C55.4752 90.712 55.6181 90.7324 55.7406 90.7733C55.8427 90.7937 55.9448 90.8345 56.0673 90.8958C56.1899 90.9571 56.2919 90.9979 56.3532 91.0387V92.1007H56.2307C56.1694 92.0598 56.1082 91.9986 56.0265 91.9373C55.9448 91.876 55.8427 91.8148 55.7406 91.7331C55.6386 91.6514 55.516 91.6106 55.3935 91.5697C55.271 91.5289 55.1485 91.5084 55.0056 91.5084C54.8422 91.5084 54.6993 91.5289 54.5564 91.5901C54.4134 91.631 54.2909 91.7331 54.1684 91.8556C54.0663 91.9782 53.9642 92.1211 53.903 92.3253C53.8417 92.5091 53.8009 92.7542 53.8009 93.0197C53.8009 93.3056 53.8417 93.5302 53.903 93.714C53.9846 93.8978 54.0663 94.0612 54.1888 94.1633C54.3113 94.2654 54.4339 94.3471 54.5768 94.4084C54.7197 94.4492 54.8626 94.4901 55.0056 94.4901C55.1485 94.4901 55.2914 94.4696 55.4344 94.4084C55.5773 94.3471 55.6794 94.3063 55.7815 94.245C55.8836 94.1837 55.9652 94.1225 56.0469 94.0612C56.1286 93.9999 56.1899 93.9387 56.2511 93.8978H56.3532V94.9394C56.2715 94.9802 56.1694 95.021 56.0673 95.0619C55.9652 95.1027 55.8427 95.1436 55.7406 95.1844C55.5977 95.2253 55.4752 95.2661 55.3527 95.2865C55.2302 95.307 55.0668 95.307 54.8626 95.307Z" fill="white"/>
<path d="M61.0904 92.9993C61.0904 93.7141 60.9066 94.2859 60.5187 94.6943C60.1307 95.1028 59.5998 95.307 58.9464 95.307C58.2726 95.307 57.7417 95.1028 57.3742 94.6739C57.0067 94.245 56.8025 93.6936 56.8025 92.9789C56.8025 92.2641 56.9863 91.6923 57.3742 91.2838C57.7622 90.8754 58.293 90.6508 58.9464 90.6508C59.6203 90.6508 60.1511 90.855 60.5187 91.2634C60.8862 91.7127 61.0904 92.2845 61.0904 92.9993ZM59.9265 92.9993C59.9265 92.7338 59.9061 92.5092 59.8449 92.3254C59.7836 92.1416 59.7223 91.9782 59.6203 91.8761C59.5182 91.7535 59.4161 91.6719 59.2936 91.6106C59.171 91.5493 59.0485 91.5289 58.926 91.5289C58.7831 91.5289 58.6606 91.5493 58.5585 91.6106C58.4564 91.6719 58.3339 91.7535 58.2318 91.8761C58.1501 91.9986 58.0684 92.1416 58.0072 92.3458C57.9459 92.5296 57.9255 92.7747 57.9255 93.0401C57.9255 93.3056 57.9459 93.5303 58.0072 93.7141C58.0684 93.8979 58.1297 94.0408 58.2318 94.1634C58.3339 94.2859 58.436 94.3676 58.5585 94.4288C58.681 94.4901 58.8035 94.5105 58.926 94.5105C59.0485 94.5105 59.1915 94.4901 59.314 94.4288C59.4365 94.3676 59.5386 94.2859 59.6407 94.1634C59.7428 94.0408 59.804 93.8774 59.8653 93.7141C59.9061 93.4894 59.9265 93.2648 59.9265 92.9993Z" fill="white"/>
<path d="M66.9709 92.1824C66.9709 92.3867 66.93 92.5909 66.8688 92.7747C66.8075 92.9585 66.7054 93.1219 66.5829 93.2444C66.5013 93.3261 66.4196 93.3873 66.3379 93.469C66.2562 93.5303 66.1541 93.5916 66.0316 93.6324C65.9295 93.6732 65.807 93.7141 65.6641 93.7345C65.5416 93.7549 65.3986 93.7754 65.2353 93.7754H64.6432V95.2253H63.5201V90.7733H65.2557C65.5212 90.7733 65.7253 90.7937 65.9295 90.8346C66.1133 90.8754 66.2766 90.9571 66.44 91.0592C66.6033 91.1613 66.7463 91.3247 66.828 91.5085C66.93 91.6923 66.9709 91.9169 66.9709 92.1824ZM65.8274 92.2029C65.8274 92.0803 65.807 91.9782 65.7458 91.8761C65.6845 91.7944 65.6233 91.7127 65.5212 91.6923C65.4191 91.6515 65.317 91.6106 65.2149 91.6106C65.1128 91.6106 64.9903 91.5902 64.8269 91.5902H64.6636V92.9176H64.7453C64.8473 92.9176 64.9494 92.9176 65.0515 92.9176C65.1536 92.9176 65.2353 92.9176 65.2966 92.8972C65.3578 92.8972 65.4191 92.8768 65.4803 92.8359C65.5416 92.8155 65.6028 92.7747 65.6437 92.7338C65.7253 92.6521 65.7662 92.5909 65.807 92.5092C65.807 92.4479 65.8274 92.3458 65.8274 92.2029Z" fill="white"/>
<path d="M67.0935 95.2253L68.6045 90.7733H69.8296L71.3406 95.2253H70.1971L69.9113 94.3063H68.5024L68.2165 95.2253H67.0935ZM69.6458 93.5099L69.1966 92.0395L68.7474 93.5099H69.6458Z" fill="white"/>
<path d="M75.5263 95.2253H74.4033V93.2444H72.8719V95.2253H71.7489V90.7733H72.8719V92.4071H74.4033V90.7733H75.5263V95.2253Z" fill="white"/>
<path d="M76.9815 52.74L76.9406 52.52L72.8514 52.6L72.1153 51L69.2937 50.9L69.2528 45.66H68.4963L68.5372 50.86L66.922 50.8L66.6357 51.82L65.6543 52.24V52.74L60.1747 52.72L60.3792 45L54.4498 52.7H54L56.4331 56.86L74.5484 57L75.5911 54.7C75.7138 54.48 75.9387 54.34 76.1636 54.2C76.593 53.96 77.1042 53.66 76.9815 52.74ZM75.1004 54.5L74.2008 56.5L56.7398 56.36L54.8996 53.22L66.1859 53.26V52.58L66.6357 52.38V53.76H70.7045V51.72H67.2082L67.3105 51.32L71.7677 51.48L72.5242 53.1L76.4908 53.02C76.4703 53.42 76.225 53.58 75.8978 53.76C75.5911 53.94 75.2844 54.12 75.1004 54.5ZM70.1729 52.22V53.24H67.1469V52.22H70.1729ZM59.6431 52.66H55.1245L59.8067 46.58L59.6431 52.66Z" fill="white"/>
<path d="M51.0203 68.4949C51.1014 68.4738 51.1825 68.4528 51.2636 68.4528C51.8112 68.5791 52.2574 68.5159 52.8252 68.4317C53.2308 68.5581 53.8189 68.8738 54.2448 68.7896C54.3868 68.6633 54.4071 68.5581 54.5896 68.537C54.5896 68.5791 54.5896 68.6002 54.5896 68.6423C54.6504 68.6423 54.7113 68.6423 54.7924 68.6423C54.8735 68.6212 54.9546 68.6001 55.0155 68.5791C55.1574 68.4949 55.2994 68.4107 55.4616 68.3265C55.5427 68.3054 55.6239 68.3054 55.705 68.3054C55.7455 68.3265 55.8267 68.3475 55.8875 68.3686C55.9889 68.3054 55.9889 68.3054 56.0497 68.1581C56.5567 67.9476 57.0435 67.6739 57.4896 67.3581C58.2197 66.3266 58.9295 65.7372 60.0449 65.253C60.3491 65.0004 60.775 64.9372 61.1603 64.853C61.5862 64.4951 61.5862 64.4951 61.9512 64.0741C62.0121 64.0531 62.0729 64.032 62.154 64.032C62.3366 63.9899 62.9855 63.2952 63.1072 63.0426C63.1478 62.9795 63.2086 62.9163 63.2694 62.8321C63.5128 62.79 63.6345 62.6847 63.8981 62.7058C63.959 62.7268 64.0401 62.7479 64.1212 62.7689C64.2632 62.7689 64.4051 62.7479 64.5674 62.7479C64.5876 62.7268 64.5876 62.7058 64.6079 62.7058C64.689 62.6637 64.7702 62.6005 64.831 62.5584C64.831 62.5584 64.8513 62.5584 64.8716 62.5584C65.0338 62.4532 65.0338 62.4532 65.2569 62.4321C65.338 62.39 65.4191 62.369 65.48 62.3479C65.5205 62.3269 65.5408 62.3058 65.5814 62.3058C65.7233 62.2006 65.7233 62.2005 65.7842 62.0532C65.8856 61.99 65.9667 61.9479 66.0681 61.9058C66.1289 61.8637 66.1289 61.8637 66.1289 61.569C66.0884 61.548 66.0681 61.5059 66.0478 61.4848C65.8044 61.5059 65.703 61.6111 65.5002 61.7585C65.338 61.8006 65.338 61.8006 65.338 61.8427C65.2569 61.8637 65.1758 61.9058 65.1149 61.9269C65.0744 61.9479 65.0541 61.969 65.0135 61.99C64.7093 62.0742 64.5268 62.1163 64.2023 62.1163C64.2023 62.0742 64.2023 62.0742 63.959 62.1163C63.5939 62.2427 63.3708 62.369 63.1275 62.6637C63.0869 62.7268 63.0464 62.79 63.0058 62.8742C62.8841 62.811 62.7422 62.7479 62.6205 62.7058C62.6002 62.1795 64.5268 61.3585 64.973 61.2743C65.0541 61.2322 65.1352 61.2111 65.196 61.1901C65.2569 61.169 65.3177 61.169 65.3988 61.169C65.7233 61.0217 65.8247 60.6849 65.9667 60.348C66.5548 59.6112 67.4268 59.2323 68.1772 58.685C68.8059 58.1587 69.2723 57.4219 69.8402 56.8325C69.8605 56.7904 69.901 56.7272 69.9416 56.7062C70.1647 56.5798 70.2661 56.2009 70.3269 55.9483C70.5703 55.6536 70.8136 55.3799 71.0367 55.0852C71.057 55.0642 71.057 55.0431 71.0773 55.0431C71.6451 54.5379 72.0304 53.8853 72.4157 53.2327C72.5171 53.1695 72.5171 53.1695 72.5983 53.0432C73.1864 52.0959 73.7948 51.1697 74.2815 50.1592C74.3424 49.7803 74.3829 49.275 74.5857 48.9593C75.7011 48.7067 75.6808 47.5909 76.8165 48.1593C76.8571 48.2646 76.8774 48.3488 76.9382 48.454C76.9585 48.8961 76.9585 48.8961 76.999 48.8961C77.0193 49.3803 76.7151 49.7803 76.4718 50.1592C76.2487 50.7907 76.127 51.4223 75.6808 51.9275C75.5592 52.2222 75.4578 52.5169 75.3361 52.8327C75.2549 52.9169 75.2549 52.9169 75.2347 53.0853C75.1941 53.2116 75.1535 53.359 75.1333 53.5064C75.113 53.5906 75.0927 53.6748 75.0724 53.759C75.0319 53.759 75.0319 53.759 74.9913 54.0116C74.9102 54.1589 74.8088 54.3274 74.7479 54.4958C74.6668 54.6852 74.5654 54.8536 74.4843 55.0431C73.957 55.3378 73.9773 55.4431 73.8151 56.0536C73.7745 56.0746 73.7745 56.0957 73.7542 56.0957C73.6325 56.2851 73.6325 56.2851 73.5311 56.5798C73.5109 56.622 73.5109 56.6641 73.4906 56.7062C73.4297 56.7693 73.4297 56.7693 73.3486 57.2745C73.3283 57.3798 73.3283 57.464 73.3081 57.5693C73.3283 57.8219 73.3486 58.0955 73.3689 58.3482C73.2878 58.4113 73.2269 58.4955 73.1661 58.5797C72.3346 59.1481 72.0304 61.0638 71.1989 61.3164C71.0975 60.6849 71.5031 60.1796 71.4017 59.6112C70.408 59.6533 70.0227 60.6217 69.4751 61.3374C69.6171 61.3374 70.0227 61.169 70.5703 61.0848C70.7528 61.2322 70.8542 61.4427 70.915 61.6532C70.8947 61.7374 70.915 61.8216 70.915 61.9058C70.7933 62.1374 70.6717 62.2637 70.4689 62.4111C70.2052 63.0426 69.9416 63.3163 69.4346 62.9373C69.0493 62.9584 68.6437 63.0005 68.3192 63.2742C68.2786 63.2742 68.2786 63.2742 68.2786 63.5478C68.1164 63.7583 68.0555 64.0741 67.8933 64.2636C67.1429 64.7688 66.3926 65.274 65.6422 65.7793C65.4191 65.7793 65.4191 65.7793 65.0946 65.653C65.0946 65.6109 65.0946 65.6109 64.8513 65.6109C64.8107 65.6109 64.7904 65.6319 64.7702 65.653C64.4862 65.7793 64.182 65.9056 63.9184 66.0529C62.9855 66.3266 62.2554 66.3477 61.9107 67.3371C61.5862 67.1476 61.282 66.9792 60.9778 66.8108C60.126 66.9371 60.0652 67.5476 59.8624 68.3054C59.4771 68.7054 59.254 69.0422 59.0106 69.5264C58.5645 69.8211 58.5645 69.8211 58.0777 70.2632C57.9966 70.2632 57.9358 70.2632 57.8749 70.2632C57.8547 70.2632 57.8344 70.2632 57.8344 70.2632C57.7127 70.2632 57.591 70.2843 57.4491 70.2843C57.4085 70.2843 57.3882 70.3053 57.3679 70.3264C56.7595 70.4527 56.1714 70.579 55.563 70.6C54.6504 70.8526 54.6504 70.8526 54.4476 70.8526C54.2245 70.8526 54.2245 70.8526 54.2245 70.9158C54.1637 70.9368 54.1028 70.9789 54.042 71C53.677 70.8316 53.3322 70.6842 52.9672 70.5158C52.1965 70.3474 51.5881 69.6106 51 69.1054C51.0608 68.958 51.0406 68.7265 51.0203 68.4949Z" fill="white"/>
<path d="M84.3263 55L77.8997 56.2927C78.8741 63.5033 76.7595 68.9365 73.1731 72.3904C71.2244 74.2688 68.8404 75.5614 66.2905 76.228C63.7406 76.8945 61.0042 76.9551 58.3506 76.3693C53.313 75.2585 48.5657 71.8046 45.8707 65.7857L45 66.129C47.9852 74.3496 54.5362 78.7325 61.5017 79.7626C64.5491 80.2069 67.6587 80.0252 70.6025 79.2374C73.5255 78.4497 76.262 77.0763 78.5631 75.1373C83.5385 70.9361 86.3786 64.089 84.3263 55Z" fill="white"/>
<path d="M43.6737 64L50.1003 62.7073C49.1259 55.4967 51.2404 50.0635 54.8269 46.6096C56.7756 44.7312 59.1596 43.4386 61.7095 42.772C64.2594 42.1055 66.9958 42.0449 69.6494 42.6307C74.687 43.7415 79.4343 47.1954 82.1293 53.2143L83 52.871C80.0148 44.6504 73.4638 40.2675 66.4983 39.2374C63.4509 38.7931 60.3413 38.9748 57.3975 39.7626C54.4744 40.5503 51.738 41.9237 49.4369 43.8627C44.4615 48.0639 41.6214 54.911 43.6737 64Z" fill="white"/>
<path d="M41.6996 64.9708C41.6789 64.9304 41.6789 64.9101 41.6789 64.8697C41.5758 64.5259 41.4934 64.2023 41.3903 63.8989C41.349 63.818 41.3078 63.7775 41.2872 63.7573C41.2665 63.7573 41.2459 63.7573 41.2047 63.7775C41.1428 63.818 41.0603 63.8584 40.9985 63.9393C40.7716 64.182 40.6273 64.5461 40.6685 64.8899C40.8129 64.9506 40.9778 65.0113 41.1428 65.1124L41.1634 65.1326L41.184 65.1529C41.7202 65.5371 41.9058 67.1551 42.0914 68.7327C42.1326 69.1574 42.1945 69.5822 42.2357 69.9867C42.2976 69.9462 42.3594 69.926 42.4007 69.8855C42.6687 69.7642 42.9162 69.744 43.1842 69.7844C43.3904 69.8249 43.576 69.9058 43.741 70.0069C42.6893 68.4698 42.2151 66.7911 41.7408 65.1529L41.6996 64.9708ZM57 88.2095C57 88.4118 56.835 88.5938 56.6288 88.5938C56.4226 88.5938 56.237 88.432 56.237 88.2297C56.2164 87.7241 56.1546 87.1376 56.0721 86.551C55.969 85.6814 55.8659 84.8521 55.9484 84.3061V84.2656V84.2454C56.237 83.2746 55.8865 82.4049 55.5772 81.6566L55.5566 81.5757C55.3916 81.1712 55.3091 80.7869 55.206 80.3015C55.1441 79.9577 55.0617 79.5734 54.9173 79.1082C54.8555 78.9059 54.9792 78.7037 55.1854 78.643C55.3916 78.5823 55.5978 78.7037 55.6597 78.9059C55.804 79.4116 55.8865 79.8161 55.9484 80.1599C56.0308 80.5846 56.1133 80.9487 56.2577 81.2925L56.2989 81.3734C56.6494 82.2229 57.0412 83.2341 56.6907 84.4476C56.6288 84.8926 56.7113 85.6611 56.8144 86.4499C56.8969 87.0567 56.9794 87.6432 57 88.2095ZM50.0509 88.6545C50.0303 88.8567 49.8447 89.0185 49.6385 88.9983C49.4323 88.9781 49.2673 88.796 49.2879 88.5938C49.3498 87.9264 49.3085 87.2994 49.1848 86.6724C49.0405 86.0454 48.8136 85.4184 48.4631 84.7308C48.4425 84.6701 48.4219 84.6094 48.4219 84.5488C48.3394 84.4881 48.2363 84.4274 48.1538 84.3667C45.968 82.8498 42.9162 80.4431 42.3388 79.7352C39.5756 76.3373 39.4313 73.4654 39.2663 70.6136C39.2251 69.9462 39.2045 69.2586 39.122 68.5911V68.5709C39.122 68.4091 39.1014 68.2068 39.0808 67.9641C38.9983 67.1147 38.8952 65.9821 39.2457 65.3551C39.3901 65.0922 39.5963 64.9102 39.885 64.8293C39.885 64.3034 40.1118 63.7775 40.4417 63.4337C40.5861 63.2921 40.751 63.1708 40.8954 63.0899C41.1016 63.009 41.3078 62.9685 41.4934 63.0292C41.7614 63.0899 41.9883 63.2921 42.1326 63.6157V63.636V63.6562C42.1532 63.7169 42.1738 63.7775 42.1945 63.8382C42.4007 63.7169 42.6481 63.6966 42.8956 63.7169C43.1018 63.7371 43.2667 63.9393 43.2461 64.1416C43.2255 64.3438 43.0193 64.5056 42.8131 64.4854C42.71 64.4652 42.6275 64.4854 42.5862 64.5056C42.545 64.5461 42.5038 64.627 42.4831 64.7888L42.5244 64.9304C42.978 66.5484 43.4523 68.2068 44.4833 69.6631C44.6071 69.8451 44.5658 70.0676 44.3802 70.1889C44.2977 70.2496 44.174 70.2698 44.0709 70.2496C44.1946 70.3709 44.2977 70.5327 44.3802 70.6945C44.9988 72.0294 45.9474 73.2227 46.9372 74.4564C47.1228 74.6991 47.329 74.9418 47.5764 75.2654C47.9063 75.6901 48.1538 75.6497 48.4631 75.589C48.793 75.5283 49.1848 75.4677 49.7416 75.6295C50.5458 75.8722 51.4737 76.3778 52.3604 77.0048C52.546 77.1261 52.7109 77.2475 52.8553 77.3688C52.9996 77.4902 53.1646 77.6115 53.3295 77.7531L53.3502 77.7733L53.3708 77.7936C53.9275 78.461 54.2368 79.2295 54.5462 80.0183C54.6905 80.3824 54.8348 80.7464 54.9998 81.1105C55.0823 81.2925 54.9998 81.5352 54.8142 81.6161C54.6286 81.697 54.3812 81.6161 54.2987 81.4341C54.1131 81.0498 53.9688 80.6655 53.8244 80.3015C53.5357 79.5734 53.2677 78.8655 52.7934 78.2992C52.6697 78.1981 52.5253 78.0767 52.381 77.9554C52.216 77.834 52.0511 77.7127 51.9067 77.6115C51.1025 77.0452 50.2365 76.5598 49.5354 76.3576C49.1642 76.2565 48.8755 76.2969 48.6281 76.3374C48.0713 76.4385 47.6177 76.5194 46.999 75.7306C46.8341 75.5081 46.5866 75.225 46.3598 74.9216C45.3494 73.6474 44.3596 72.4339 43.6998 70.9979C43.6379 70.8563 43.5348 70.735 43.4317 70.6541C43.3286 70.5732 43.2255 70.5125 43.1018 70.5125C42.9987 70.4923 42.8956 70.5125 42.7925 70.553C42.71 70.5934 42.6069 70.6743 42.5244 70.7754C42.4831 70.8159 42.4625 70.8361 42.4213 70.8766C42.4213 71.099 42.4213 71.3417 42.4007 71.6047C42.3594 72.2519 42.3182 73.0407 42.5862 73.9508V73.971C43.0193 74.7598 43.3492 75.3665 43.4111 76.1553C43.4111 76.2767 43.4317 76.398 43.4523 76.4992C43.4729 76.6205 43.4935 76.7216 43.5348 76.8632C43.6998 77.4902 44.0091 78.1374 44.504 78.7239C44.6483 78.8857 44.6071 79.1284 44.4421 79.27C44.2771 79.4116 44.0297 79.3711 43.8853 79.2093C43.3286 78.5217 42.9574 77.7733 42.7718 77.0452C42.7306 76.9037 42.71 76.7621 42.6893 76.6205C42.6687 76.4789 42.6481 76.3373 42.6481 76.1958C42.5862 75.5688 42.2976 75.0227 41.9058 74.3148L41.8851 74.2744L41.8645 74.2542L41.8439 74.2137C41.4934 73.162 41.5552 72.2721 41.5965 71.5642C41.6171 71.2002 41.6377 70.8968 41.5965 70.6743C41.4934 70.1485 41.4315 69.481 41.349 68.8136C41.1841 67.4181 41.0191 65.9821 40.7716 65.7798C40.2767 65.5169 40.0499 65.5371 39.9468 65.7192C39.6994 66.1439 39.8025 67.1551 39.8643 67.9035C39.885 68.1462 39.9056 68.3686 39.9262 68.5304C39.9881 69.2181 40.0293 69.9058 40.0705 70.5732C40.2149 73.3238 40.3592 76.0542 42.9574 79.2498C43.4729 79.897 46.4629 82.2431 48.6074 83.7398C49.0199 84.0229 49.4116 84.2858 49.7416 84.4881C50.0509 84.6903 50.3189 84.8319 50.4839 84.9128C50.6901 84.9937 50.7726 85.2162 50.6901 85.4184C50.6076 85.6207 50.3808 85.7016 50.1746 85.6207C50.0303 85.56 49.8241 85.4589 49.5972 85.3173C49.7622 85.7218 49.8859 86.1263 49.9684 86.5308C50.0715 87.2185 50.1127 87.9264 50.0509 88.6545Z" fill="white"/>
<path d="M86.2565 64.035C86.2765 63.9934 86.2765 63.9726 86.2765 63.9309C86.3569 63.577 86.4373 63.2439 86.5378 62.9108C86.5779 62.8275 86.598 62.7858 86.6382 62.765C86.6583 62.765 86.6784 62.765 86.7186 62.7858C86.799 62.8275 86.8592 62.8691 86.9396 62.9524C87.1606 63.1814 87.3214 63.577 87.3013 63.9101C87.1606 63.9726 86.9999 64.0559 86.8391 64.1391L86.8191 64.16L86.799 64.1808C86.2766 64.5764 86.156 66.2628 86.0153 67.8867C85.9752 68.324 85.935 68.782 85.8948 69.1776C85.8345 69.1359 85.7742 69.1151 85.734 69.0943C85.4728 68.9694 85.2116 68.9486 84.9705 69.011C84.7696 69.0527 84.5888 69.1359 84.428 69.2609C85.4126 67.6369 85.8345 65.9088 86.2364 64.2016L86.2565 64.035ZM72.0107 88.3945C72.0107 88.6027 72.1715 88.79 72.3925 88.79C72.5934 88.79 72.7742 88.6235 72.7742 88.3945C72.7742 87.874 72.8345 87.2702 72.8747 86.6664C72.9551 85.7711 73.0354 84.9175 72.9149 84.3554V84.3137V84.2929C72.6135 83.2936 72.935 82.3983 73.1962 81.6071L73.2163 81.5239C73.377 81.1075 73.4373 80.7119 73.5177 80.2122C73.5779 79.8583 73.6382 79.4627 73.7588 78.963C73.799 78.7548 73.6784 78.5466 73.4775 78.4841C73.2766 78.4425 73.0756 78.5674 73.0153 78.7756C72.8948 79.2961 72.8345 79.7125 72.7541 80.0665C72.6738 80.5245 72.6135 80.8784 72.4929 81.2324L72.4528 81.3157C72.1514 82.2109 71.7897 83.2519 72.1514 84.4803C72.2317 84.9383 72.1514 85.7295 72.0911 86.5623C72.071 87.1869 72.0107 87.8115 72.0107 88.3945ZM78.782 88.6443C78.8021 88.8525 78.9829 89.0191 79.2039 88.9982C79.4048 88.9774 79.5656 88.79 79.5455 88.561C79.4651 87.874 79.4852 87.2285 79.6058 86.5831C79.7263 85.9377 79.9272 85.2715 80.2688 84.5636C80.2889 84.5011 80.309 84.4387 80.309 84.3762C80.3894 84.3137 80.4898 84.2513 80.5702 84.168C82.6599 82.544 85.5733 79.9832 86.0957 79.2337C88.7078 75.6734 88.7681 72.717 88.8283 69.7605C88.8484 69.0735 88.8484 68.3656 88.9087 67.6785V67.6577C88.9087 67.4912 88.9288 67.283 88.9489 67.0331C89.0092 66.1587 89.0895 64.9928 88.7078 64.3473C88.547 64.0767 88.3461 63.8893 88.0648 63.8268C88.0648 63.2855 87.8036 62.765 87.5022 62.4111C87.3616 62.2653 87.2008 62.1404 87.0401 62.078C86.8391 61.9947 86.6382 61.9739 86.4574 62.0363C86.1962 62.1196 85.9953 62.307 85.8546 62.6609V62.6817V62.7026C85.8345 62.765 85.8144 62.8275 85.8144 62.8899C85.6135 62.765 85.3724 62.7442 85.1112 62.7858C84.9102 62.8275 84.7696 63.0149 84.7897 63.2231C84.8299 63.4313 85.0107 63.577 85.2116 63.5562C85.3121 63.5354 85.3925 63.5354 85.4327 63.577C85.4728 63.6186 85.513 63.7019 85.5532 63.8685L85.513 64.0142C85.1112 65.7006 84.7093 67.4079 83.7248 68.9486C83.6042 69.1359 83.6645 69.365 83.8252 69.4899C83.9257 69.5523 84.0262 69.5732 84.1266 69.5523C84.0061 69.6773 83.9257 69.8438 83.8453 70.0104C83.2827 71.4053 82.3987 72.6545 81.4543 73.9454C81.2735 74.1952 81.0926 74.4451 80.8515 74.799C80.53 75.2362 80.309 75.1946 80.0076 75.1529C79.6861 75.1113 79.3044 75.0488 78.7619 75.2362C77.9983 75.5069 77.0942 76.069 76.2503 76.7144C76.0694 76.8602 75.9288 76.9851 75.7881 77.11C75.6475 77.2349 75.4868 77.3807 75.3461 77.5056L75.326 77.5264L75.3059 77.5472C74.7835 78.2551 74.5022 79.0463 74.2209 79.8791C74.1004 80.2538 73.9597 80.6494 73.799 81.0034C73.7186 81.2116 73.799 81.4406 73.9999 81.5239C74.2008 81.6071 74.4218 81.5239 74.5022 81.3157C74.663 80.9201 74.8036 80.5245 74.9443 80.1289C75.2055 79.3794 75.4466 78.6507 75.8886 78.0469C76.0092 77.922 76.1498 77.8179 76.2905 77.693C76.4512 77.5681 76.5919 77.4431 76.7325 77.3182C77.496 76.7144 78.3198 76.1939 79.0231 75.9649C79.3847 75.84 79.666 75.8816 79.9072 75.9233C80.4497 76.0066 80.8917 76.069 81.4744 75.257C81.6351 75.028 81.8562 74.7157 82.0772 74.4034C83.0416 73.0709 83.9659 71.7801 84.5486 70.281C84.6089 70.1353 84.7093 70.0104 84.8098 69.9271C84.9102 69.8438 85.0107 69.7814 85.1313 69.7605C85.2317 69.7397 85.3322 69.7397 85.4327 69.8022C85.5331 69.8438 85.6135 69.9271 85.714 70.0312C85.7541 70.0728 85.7742 70.0937 85.8345 70.1145C85.8345 70.3435 85.8546 70.5933 85.8747 70.864C85.935 71.5302 85.9953 72.3422 85.7541 73.2791V73.2999C85.3523 74.1119 85.0509 74.7573 85.0107 75.5693C85.0107 75.6942 84.9906 75.8192 84.9906 75.9233C84.9705 76.0482 84.9504 76.1731 84.9303 76.298C84.7897 76.9434 84.5084 77.6097 84.0262 78.2551C83.9056 78.4217 83.9257 78.6715 84.1065 78.7964C84.2673 78.9214 84.5084 78.9005 84.6289 78.7132C85.1714 77.9845 85.4929 77.2141 85.6537 76.4646C85.6939 76.3189 85.714 76.1731 85.734 76.0274C85.7541 75.8816 85.7742 75.7359 85.7742 75.5901C85.8144 74.9447 86.0957 74.3618 86.4373 73.6331L86.4574 73.5914L86.4775 73.5706L86.4976 73.529C86.799 72.4463 86.7186 71.5302 86.6583 70.8015C86.6181 70.4268 86.598 70.1145 86.6382 69.8855C86.7186 69.3441 86.7789 68.6571 86.8191 67.97C86.9396 66.5334 87.0602 65.0552 87.3013 64.847C87.7634 64.5555 88.0045 64.5764 88.105 64.7637C88.3461 65.201 88.2858 66.2211 88.2456 66.9915C88.2255 67.2413 88.2055 67.4703 88.2055 67.6577C88.1653 68.3656 88.1452 69.0735 88.1251 69.7605C88.0648 72.5921 88.0045 75.4236 85.5532 78.7756C85.071 79.4627 82.2178 81.9611 80.1684 83.5434C79.7665 83.8557 79.4048 84.1264 79.0834 84.3346C78.782 84.5428 78.5409 84.7093 78.36 84.7926C78.1792 84.8759 78.0787 85.1257 78.1792 85.3131C78.2596 85.5005 78.5007 85.6046 78.6815 85.5005C78.8221 85.438 79.0231 85.3131 79.224 85.1674C79.0834 85.5838 78.9628 86.0002 78.9025 86.4166C78.7217 87.1661 78.7016 87.874 78.782 88.6443Z" fill="white"/>
</svg>
