<svg width="128" height="128" viewBox="0 0 128 128" fill="none" xmlns="http://www.w3.org/2000/svg">
<path d="M64.6709 3.26855L65.2637 3.81934L65.2891 3.84473L124.136 62.7012L125.414 63.9795L124.707 64.6865L124.136 65.2588L65.2891 124.135L64.7178 124.707L64.0098 125.414L63.3027 124.707L62.7314 124.136L3.86426 65.2793L3.29297 64.707L2.58594 64L3.29297 63.293L3.86426 62.7207L62.7109 3.86523L63.2822 3.29297L63.9648 2.61035L64.6709 3.26855ZM7.72168 63.9795L64.0098 120.277L120.298 63.9795L64.0098 7.7002L7.72168 63.9795Z" fill="#5A84EF" stroke="white" stroke-width="2"/>
<path d="M64.0031 6.27978L6.30896 63.9838L64.0031 121.688L121.697 63.9838L64.0031 6.27978Z" fill="#08216B"/>
<path fill-rule="evenodd" clip-rule="evenodd" d="M63.9899 29C73.6534 29 82.411 32.9258 88.7527 39.2473C95.0943 45.589 99 54.3264 99 63.9899C99 73.6534 95.0742 82.411 88.7527 88.7527C82.411 95.0943 73.6736 99 64.0101 99C54.3466 99 45.589 95.0742 39.2473 88.7527C32.9057 82.411 29 73.6736 29 64.0101C29 54.3466 32.9258 45.589 39.2473 39.2473C45.5689 32.9057 54.3264 29 63.9899 29ZM63.9899 30.1274C54.6485 30.1274 46.1728 33.9123 40.0526 40.0526C33.9123 46.193 30.1274 54.6485 30.1274 63.9899C30.1274 73.3313 33.9123 81.807 40.0526 87.9272C46.193 94.0676 54.6485 97.8525 63.9899 97.8525C73.3313 97.8525 81.807 94.0676 87.9272 87.9272C94.0676 81.7869 97.8525 73.3313 97.8525 63.9899C97.8525 54.6485 94.0676 46.1728 87.9272 40.0526C81.807 33.9123 73.3313 30.1274 63.9899 30.1274Z" fill="#5A84EF"/>
<path fill-rule="evenodd" clip-rule="evenodd" d="M64 30C54.6207 30 46.1106 33.8002 39.9655 39.9655C33.8002 46.1308 30 54.6207 30 64C30 73.3793 33.8002 81.8894 39.9655 88.0345C46.1308 94.1998 54.6207 98 64 98C73.3793 98 81.8894 94.1998 88.0345 88.0345C94.1998 81.8692 98 73.3793 98 64C98 54.6207 94.1998 46.1106 88.0345 39.9655C81.8894 33.8002 73.3793 30 64 30Z" fill="white"/>
<path fill-rule="evenodd" clip-rule="evenodd" d="M37.7111 69.9224C37.8337 70.2695 37.9357 70.6371 38.0378 70.9843C36.8331 71.3519 35.6284 71.7195 34.4237 72.1075C34.5258 72.4547 34.6484 72.8223 34.7504 73.1695C34.9342 73.1286 35.0976 73.0878 35.2405 73.0469C35.3834 73.0061 35.5468 72.9652 35.6897 72.9448C36.0777 72.8427 36.4452 72.7814 36.731 72.7406C37.0373 72.6998 37.2823 72.6793 37.4865 72.6998C37.7111 72.6998 37.8745 72.7202 37.997 72.761C38.1399 72.8019 38.242 72.8427 38.3237 72.8836C38.4462 72.9448 38.5687 73.0265 38.6708 73.149C38.7729 73.2716 38.8342 73.3941 38.875 73.5166C38.8954 73.5983 38.9363 73.7004 38.9567 73.823C38.9771 73.9251 38.9975 74.0068 38.9975 74.0272C38.6708 74.1293 38.3237 74.2314 37.997 74.3335C37.997 74.3131 37.997 74.3131 37.997 74.2927C37.997 74.2723 37.997 74.2518 37.9766 74.2314C37.9766 74.211 37.9766 74.1906 37.9562 74.1497C37.9357 74.1089 37.9153 74.0476 37.8745 73.9659C37.8337 73.9047 37.7928 73.8434 37.7316 73.823C37.5682 73.7209 37.3232 73.7004 37.0169 73.7413C36.7106 73.7821 36.2818 73.8638 35.751 74.0068C35.5059 74.068 35.2609 74.1293 35.0771 74.1906C34.8934 74.2518 34.5871 74.3335 34.2196 74.4356C33.8929 73.3941 33.5866 72.3526 33.2599 71.3111C34.7504 70.8414 36.2206 70.3921 37.7111 69.9224Z" fill="#08216B"/>
<path fill-rule="evenodd" clip-rule="evenodd" d="M37.0575 65.2661C37.0984 65.6337 37.1188 66.0013 37.1596 66.3689C36.1591 66.4914 35.1382 66.614 34.1377 66.7161C35.1994 67.1654 36.2816 67.6146 37.3434 68.0639C37.3842 68.4111 37.4251 68.7583 37.4455 69.085C35.9141 69.2688 34.3623 69.4526 32.8309 69.6364C32.79 69.2688 32.7696 68.9012 32.7288 68.5336C33.6476 68.4315 34.5665 68.3294 35.4853 68.2069C34.5256 67.7984 33.5455 67.3696 32.5859 66.9611C32.545 66.5731 32.5042 66.1851 32.4838 65.7971C33.9947 65.6337 35.5261 65.4499 37.0575 65.2661Z" fill="#08216B"/>
<path fill-rule="evenodd" clip-rule="evenodd" d="M37.3638 59.8136C37.323 60.1812 37.3025 60.5488 37.2821 60.9163C36.2612 60.8755 35.2403 60.8551 34.2398 60.8142C34.8727 61.1001 35.5057 61.4065 36.1591 61.6924C36.1387 61.9375 36.1183 62.2029 36.0979 62.448C35.424 62.6931 34.7502 62.9381 34.0764 63.1832C35.0973 63.224 36.1183 63.2445 37.1392 63.2853C37.1188 63.6325 37.0779 64.0001 37.0779 64.3473C35.5466 64.3064 34.0152 64.2451 32.4838 64.1839C32.5042 63.755 32.545 63.3262 32.5654 62.8973C33.3413 62.591 34.1173 62.2846 34.9136 61.9783C34.1785 61.6311 33.4434 61.2635 32.7084 60.9163C32.7288 60.4875 32.7696 60.0586 32.8105 59.6298C34.301 59.7114 35.812 59.7727 37.3638 59.8136Z" fill="#08216B"/>
<path fill-rule="evenodd" clip-rule="evenodd" d="M38.6298 55.2185C38.5277 55.5861 38.4256 55.9537 38.3235 56.3008C37.6701 56.1375 37.0167 55.9945 36.3633 55.8311C36.2204 56.3213 36.0979 56.8114 35.9345 57.3015C36.5879 57.4649 37.2413 57.6283 37.8947 57.7712C37.7926 58.1388 37.6701 58.5064 37.568 58.8536C36.0979 58.5064 34.6277 58.1388 33.1576 57.7712C33.2597 57.4036 33.3618 57.0565 33.4639 56.6889C33.9948 56.8114 34.5256 56.9544 35.0769 57.0769C35.2199 56.5868 35.3628 56.0966 35.5057 55.6065C34.9748 55.484 34.4235 55.341 33.8927 55.2185C33.9948 54.8509 34.0968 54.5037 34.1989 54.1361C35.6895 54.5037 37.1596 54.8509 38.6298 55.2185Z" fill="#08216B"/>
<path fill-rule="evenodd" clip-rule="evenodd" d="M38.7728 49.7454C39.4262 50.0517 39.855 50.4601 40.0796 50.9911C40.2837 51.5221 40.2225 52.0735 39.9162 52.6862C39.6099 53.2988 39.1811 53.6868 38.6298 53.8502C38.0581 54.0136 37.466 53.9523 36.8126 53.646C36.1592 53.3397 35.7304 52.9312 35.5262 52.4002C35.322 51.8897 35.3833 51.3179 35.6896 50.7052C35.9958 50.113 36.4246 49.7045 36.9759 49.5412C37.5068 49.3778 38.1194 49.439 38.7728 49.7454ZM38.2419 50.7869C37.9969 50.6848 37.7723 50.6031 37.5885 50.5827C37.3843 50.5623 37.221 50.5623 37.0576 50.5827C36.8943 50.6235 36.7717 50.6848 36.6697 50.7665C36.5676 50.8482 36.4859 50.9503 36.4246 51.0728C36.3634 51.1953 36.3225 51.3179 36.3225 51.4404C36.3021 51.5629 36.343 51.7059 36.4042 51.8488C36.4655 51.9918 36.588 52.1143 36.7309 52.2369C36.8738 52.3798 37.078 52.5024 37.323 52.6045C37.5681 52.727 37.7927 52.7883 37.9764 52.8087C38.1602 52.8291 38.3236 52.8291 38.4869 52.8087C38.6503 52.7678 38.7728 52.7066 38.8749 52.6249C38.977 52.5432 39.0586 52.4411 39.1199 52.3186C39.1811 52.196 39.222 52.0735 39.222 51.9305C39.222 51.7876 39.2016 51.665 39.1199 51.5221C39.0382 51.3791 38.9361 51.2566 38.8136 51.1341C38.6911 51.032 38.5073 50.9094 38.2419 50.7869Z" fill="#08216B"/>
<path fill-rule="evenodd" clip-rule="evenodd" d="M43.449 46.9475C43.2244 47.2538 42.9793 47.5602 42.7547 47.8461C41.7746 47.1517 40.815 46.437 39.8553 45.7222C39.6307 46.0285 39.3857 46.3349 39.1611 46.6208C39.2836 46.7229 39.4265 46.825 39.5286 46.9271C39.6511 47.0292 39.7532 47.1109 39.8757 47.1926C40.182 47.4376 40.427 47.6623 40.6108 47.8665C40.815 48.0707 40.9579 48.2545 41.06 48.4179C41.1621 48.5813 41.2642 48.7447 41.305 48.8468C41.3459 48.9693 41.3663 49.0714 41.3867 49.1735C41.4071 49.3165 41.4071 49.4594 41.3459 49.6024C41.305 49.7453 41.2438 49.8883 41.1417 49.9904C41.0804 50.0721 40.9987 50.1334 40.9375 50.2355C40.8762 50.3172 40.815 50.3784 40.7946 50.3988C40.5291 50.215 40.2637 50.0108 39.9982 49.827C39.9982 49.827 40.0187 49.8066 40.0187 49.7862C40.0391 49.7658 40.0391 49.7453 40.0595 49.7453C40.0799 49.7249 40.0799 49.7045 40.1207 49.6841C40.1616 49.6432 40.182 49.582 40.2228 49.5207C40.2637 49.439 40.2637 49.3777 40.2637 49.3369C40.2433 49.1327 40.1412 48.9489 39.937 48.7242C39.7328 48.52 39.4265 48.2341 39.0181 47.9074C38.8344 47.744 38.6506 47.6214 38.5077 47.4989C38.3443 47.3764 38.1401 47.213 37.8339 46.9884C38.5077 46.1102 39.1815 45.2116 39.8757 44.3335C41.06 45.2116 42.2647 46.0898 43.449 46.9475Z" fill="#08216B"/>
<path fill-rule="evenodd" clip-rule="evenodd" d="M45.5925 41.8013C46.0825 42.3323 46.3275 42.8632 46.3071 43.4351C46.2867 44.0069 46.0417 44.5174 45.5312 44.9667C45.0208 45.416 44.4695 45.6202 43.9182 45.5794C43.3464 45.5385 42.8156 45.2526 42.3459 44.7421C41.8763 44.2315 41.6313 43.6801 41.6517 43.1083C41.6517 42.5365 41.9171 42.0259 42.4276 41.5767C42.9381 41.1274 43.4689 40.9027 44.0407 40.9436C44.5715 40.9844 45.1024 41.2703 45.5925 41.8013ZM44.7145 42.5773C44.5307 42.3935 44.3674 42.2302 44.204 42.1485C44.0407 42.0464 43.8773 41.9851 43.7344 41.9647C43.5915 41.9443 43.4281 41.9443 43.3056 41.9851C43.1831 42.0259 43.081 42.0872 42.9585 42.1893C42.8564 42.271 42.7747 42.3731 42.7135 42.4957C42.6522 42.6182 42.6318 42.7407 42.6522 42.9041C42.6522 43.047 42.7135 43.2104 42.7951 43.3942C42.8768 43.578 43.0197 43.7618 43.2035 43.9456C43.3873 44.1498 43.5506 44.2928 43.714 44.3949C43.8773 44.497 44.0202 44.5379 44.1836 44.5787C44.3469 44.5991 44.4695 44.5991 44.6124 44.5583C44.7349 44.5174 44.8574 44.4562 44.9595 44.3541C45.0616 44.2724 45.1433 44.1498 45.1841 44.0273C45.2454 43.9048 45.2658 43.7618 45.2454 43.6189C45.2249 43.4555 45.1841 43.2921 45.1024 43.1287C45.0412 42.9654 44.8982 42.802 44.7145 42.5773Z" fill="#08216B"/>
<path fill-rule="evenodd" clip-rule="evenodd" d="M48.0837 38.3295C47.5528 38.6971 47.0423 39.0443 46.5115 39.4119C47.1853 40.3921 47.8591 41.3724 48.5329 42.3731C48.2062 42.5977 47.8999 42.8019 47.5936 43.0061C46.7565 41.8012 45.9193 40.5759 45.0822 39.3506C45.9193 38.7788 46.7565 38.2069 47.5936 37.6351C47.757 37.8598 47.9203 38.1048 48.0837 38.3295Z" fill="#08216B"/>
<path fill-rule="evenodd" clip-rule="evenodd" d="M53.9643 39.2893C53.6172 39.4526 53.2905 39.616 52.9638 39.7998C52.535 38.9217 52.0858 38.0639 51.657 37.1858C51.5754 38.309 51.4937 39.4526 51.412 40.5759C51.1057 40.7392 50.779 40.8822 50.4728 41.0456C49.8194 39.7181 49.166 38.3907 48.5126 37.0837C48.8393 36.9203 49.1864 36.7569 49.5131 36.5731C49.8806 37.3696 50.289 38.1456 50.6769 38.9421C50.7586 37.921 50.8403 36.8999 50.922 35.8584C51.2691 35.6746 51.6162 35.5112 51.9633 35.3274C52.6371 36.6344 53.3109 37.9618 53.9643 39.2893Z" fill="#08216B"/>
<path fill-rule="evenodd" clip-rule="evenodd" d="M58.2521 38.0231C57.8846 38.1252 57.5171 38.2274 57.1495 38.309C57.0066 37.7781 56.8841 37.2471 56.7412 36.7161C56.5574 36.8182 56.3736 36.8999 56.2307 36.9612C56.0878 37.0225 55.8836 37.0837 55.6386 37.1654C55.4548 37.2063 55.271 37.2267 55.1077 37.2267C54.9443 37.2267 54.7606 37.1858 54.6176 37.1041C54.4747 37.0224 54.3318 36.9203 54.2297 36.7978C54.1276 36.6549 54.0459 36.4711 53.9847 36.2668C53.8417 35.7359 53.7192 35.2049 53.5763 34.6739C53.9438 34.5718 54.2909 34.4901 54.6789 34.388C54.7606 34.7352 54.8422 35.0619 54.9443 35.4091C54.9852 35.5929 55.0464 35.7359 55.0873 35.838C55.1281 35.9401 55.1894 36.0218 55.271 36.1035C55.3527 36.1647 55.4344 36.226 55.5569 36.226C55.6794 36.2464 55.8223 36.226 56.0265 36.1647C56.0878 36.1443 56.1899 36.1239 56.292 36.083C56.4145 36.0422 56.4962 36.0013 56.5574 35.9809C56.3736 35.3274 56.2103 34.6739 56.0469 34.0204C56.4145 33.9183 56.7616 33.8162 57.1495 33.7345C57.4967 35.1436 57.8642 36.5936 58.2521 38.0231Z" fill="#08216B"/>
<path fill-rule="evenodd" clip-rule="evenodd" d="M59.1917 37.8189C59.0079 36.3485 58.8241 34.8781 58.6608 33.4078C59.6613 33.2852 60.6618 33.1627 61.6623 33.0402C61.6827 33.3261 61.7236 33.612 61.7644 33.8775C61.1314 33.9592 60.4984 34.0204 59.8655 34.1021C59.8859 34.3676 59.9267 34.6127 59.9471 34.8781C60.5189 34.8169 61.111 34.7352 61.6827 34.6739C61.7236 34.9598 61.744 35.2253 61.7848 35.5112C61.2131 35.5929 60.621 35.6542 60.0492 35.7359C60.0901 36.1035 60.1309 36.4711 60.1922 36.8387C60.8251 36.757 61.4581 36.6957 62.0911 36.614C62.1115 36.8999 62.1523 37.1654 62.1932 37.4513C61.1723 37.5739 60.1717 37.6964 59.1917 37.8189Z" fill="#08216B"/>
<path fill-rule="evenodd" clip-rule="evenodd" d="M64.8271 37.5125C64.1533 37.4921 63.6224 37.2879 63.2345 36.8794C62.8465 36.471 62.6628 35.8992 62.6832 35.164C62.7036 34.4492 62.9078 33.8978 63.2957 33.4894C63.7041 33.0809 64.235 32.8767 64.9088 32.8767C65.0721 32.8767 65.2355 32.8971 65.3784 32.9175C65.5214 32.938 65.6643 32.9788 65.7868 33.0197C65.8889 33.0401 65.991 33.1013 66.1135 33.1422C66.236 33.2035 66.3177 33.2443 66.3993 33.2852C66.3993 33.6323 66.3994 33.9999 66.3789 34.3471C66.3381 34.3471 66.3177 34.3471 66.2768 34.3471C66.2156 34.3062 66.1543 34.245 66.0727 34.1633C65.991 34.102 65.9093 34.0203 65.8072 33.9591C65.7051 33.8978 65.5826 33.8365 65.4601 33.7957C65.3376 33.7549 65.1947 33.7344 65.0721 33.714C64.9088 33.714 64.7659 33.7344 64.6229 33.7753C64.48 33.8161 64.3575 33.9182 64.235 34.0408C64.1329 34.1429 64.0308 34.3063 63.9491 34.4901C63.8674 34.6738 63.847 34.8985 63.8266 35.164C63.8266 35.4499 63.847 35.6745 63.9287 35.8583C63.99 36.0421 64.0921 36.2055 64.2146 36.3076C64.3371 36.4301 64.4596 36.5118 64.6025 36.5527C64.7454 36.5935 64.8884 36.6344 65.0313 36.6344C65.1947 36.6344 65.3172 36.6139 65.4601 36.5731C65.603 36.5323 65.7051 36.471 65.8072 36.4097C65.9093 36.3485 65.991 36.2872 66.0727 36.2259C66.1543 36.1647 66.2156 36.1034 66.2768 36.0626C66.3177 36.0626 66.3381 36.0626 66.3789 36.0626C66.3789 36.4097 66.3585 36.7569 66.3585 37.1041C66.2768 37.1449 66.1748 37.1858 66.0727 37.2266C65.9501 37.2674 65.8481 37.3083 65.7255 37.3491C65.5826 37.39 65.4601 37.4104 65.3376 37.4308C65.2151 37.5125 65.0517 37.5125 64.8271 37.5125Z" fill="#08216B"/>
<path fill-rule="evenodd" clip-rule="evenodd" d="M70.9117 38.2069C70.4625 38.1252 70.0337 38.0639 69.6049 37.9822C69.2987 37.3287 69.0128 36.6548 68.7269 36.0013C68.6248 35.9809 68.5432 35.9809 68.4615 35.9605C68.3594 36.5527 68.2573 37.1449 68.1552 37.7372C67.7877 37.6759 67.4201 37.6146 67.0526 37.533C67.3181 36.083 67.5631 34.6126 67.8081 33.1422C68.1756 33.2035 68.5432 33.2647 68.9107 33.3464C68.8086 33.9387 68.7065 34.5309 68.6044 35.1232C68.7678 35.1436 68.9107 35.1232 69.0128 35.0823C69.1149 35.021 69.2374 34.8985 69.4007 34.6943C69.4416 34.633 69.5028 34.5513 69.5641 34.4696C69.6254 34.388 69.6866 34.3063 69.7274 34.245C69.9112 33.9999 70.095 33.8366 70.2992 33.7549C70.5034 33.6732 70.7484 33.6528 71.0547 33.714C71.1567 33.7345 71.2384 33.7549 71.2997 33.7549C71.3609 33.7753 71.4222 33.7753 71.463 33.7753C71.4018 34.0816 71.3609 34.4084 71.2997 34.7147C71.218 34.6943 71.1363 34.6739 71.0342 34.6739C70.9117 34.6534 70.7892 34.6739 70.6871 34.7351C70.585 34.7964 70.4625 34.9394 70.3196 35.1436C70.2175 35.307 70.1154 35.4499 70.0337 35.5316C69.9521 35.6133 69.8704 35.6745 69.8091 35.695C70.1358 36.5323 70.5238 37.3696 70.9117 38.2069Z" fill="#08216B"/>
<path fill-rule="evenodd" clip-rule="evenodd" d="M74.9339 39.7182C74.5868 39.5957 74.2397 39.4527 73.8926 39.3302C74.2397 38.4112 74.5664 37.5126 74.9135 36.5936C74.0355 37.3084 73.1575 38.0232 72.2795 38.7175C71.9528 38.595 71.6261 38.4725 71.2994 38.3499C71.8099 36.9612 72.3408 35.5725 72.8717 34.1838C73.2188 34.3064 73.5455 34.4493 73.913 34.5719C73.6067 35.3887 73.3005 36.226 72.9942 37.0429C73.7905 36.4098 74.6072 35.7768 75.4036 35.1233C75.7711 35.2662 76.1182 35.4092 76.5062 35.5317C75.9753 36.9408 75.4444 38.3295 74.9339 39.7182Z" fill="#08216B"/>
<path fill-rule="evenodd" clip-rule="evenodd" d="M79.1404 41.9849C78.8137 41.8011 78.4666 41.6377 78.1603 41.4539C78.6299 40.5962 79.0995 39.7385 79.5487 38.8807C78.5687 39.473 77.609 40.0448 76.6493 40.6166C76.3226 40.4532 76.0163 40.2899 75.7305 40.1061C76.4247 38.7991 77.1393 37.5125 77.854 36.2055C78.1807 36.3892 78.5074 36.5526 78.8341 36.7364C78.4053 37.5125 77.9969 38.2885 77.5886 39.0645C78.4666 38.554 79.365 38.023 80.243 37.5125C80.5901 37.6963 80.9372 37.8801 81.2843 38.0639C80.5493 39.3913 79.8346 40.6779 79.1404 41.9849ZM81.6314 36.6343C81.4681 36.9406 81.2027 37.1244 80.876 37.1857C80.5493 37.247 80.1409 37.1449 79.6713 36.8998C79.2016 36.6343 78.8953 36.3484 78.7728 36.0421C78.6503 35.7153 78.6503 35.409 78.8341 35.1027C79.12 35.266 79.4058 35.409 79.6917 35.5724C79.5896 35.7562 79.5487 35.9195 79.5896 36.0625C79.6304 36.185 79.7325 36.3076 79.9367 36.4097C80.1205 36.5118 80.3042 36.5526 80.4063 36.5118C80.5288 36.4709 80.6513 36.3484 80.7534 36.1646C81.0393 36.328 81.3456 36.4914 81.6314 36.6343Z" fill="#08216B"/>
<path fill-rule="evenodd" clip-rule="evenodd" d="M84.0818 46.478C83.8164 46.2125 83.5509 45.947 83.2855 45.6815C83.9797 45.0076 84.6944 44.3336 85.3886 43.6393C84.286 43.9048 83.1834 44.1703 82.0604 44.4562C81.8154 44.2111 81.5703 43.966 81.3253 43.721C82.3871 42.6999 83.4488 41.6583 84.4902 40.6168C84.7556 40.8823 85.0211 41.1478 85.2865 41.4133C84.6535 42.0259 84.0206 42.6386 83.408 43.2513C84.4085 43.0266 85.4295 42.7816 86.43 42.5365C86.7158 42.8224 86.9813 43.0879 87.2671 43.3738C86.1849 44.4153 85.1232 45.4569 84.0818 46.478Z" fill="#08216B"/>
<path fill-rule="evenodd" clip-rule="evenodd" d="M86.981 50.2356C86.736 49.9293 86.5114 49.6229 86.2868 49.337C86.8177 48.949 87.3486 48.561 87.8795 48.173C87.5528 47.7645 87.2465 47.3561 86.9402 46.9477C86.4093 47.3357 85.8784 47.7237 85.3476 48.1117C85.1229 47.8054 84.8779 47.4991 84.6533 47.2131C85.858 46.335 87.0423 45.4773 88.247 44.5991C88.492 44.9055 88.7166 45.2118 88.9412 45.5181C88.5124 45.8449 88.0632 46.1512 87.6344 46.478C87.9407 46.8864 88.2674 47.2948 88.5737 47.7033C89.0025 47.3765 89.4517 47.0702 89.8805 46.7434C90.1051 47.0498 90.3501 47.3561 90.5747 47.6624C89.37 48.4793 88.1857 49.3575 86.981 50.2356Z" fill="#08216B"/>
<path fill-rule="evenodd" clip-rule="evenodd" d="M88.1857 52.8699C87.8794 52.2573 87.8386 51.7059 88.0223 51.1749C88.2061 50.6439 88.6349 50.2355 89.3087 49.9292C89.9621 49.6228 90.5542 49.5616 91.1055 49.7454C91.6773 49.9292 92.1061 50.3172 92.4123 50.9298C92.494 51.0932 92.5553 51.2362 92.5961 51.3791C92.6369 51.5221 92.6778 51.6446 92.6982 51.7876C92.7186 51.8897 92.739 52.0122 92.739 52.1347C92.739 52.2573 92.7595 52.3798 92.7595 52.4615C92.4328 52.6044 92.1061 52.7678 91.7794 52.9108C91.7589 52.8699 91.7385 52.8495 91.7181 52.8087C91.7385 52.7474 91.7589 52.6453 91.7794 52.5636C91.7998 52.4615 91.8202 52.339 91.8406 52.2368C91.8406 52.1143 91.8406 51.9918 91.8202 51.8488C91.7998 51.7263 91.7589 51.5833 91.6977 51.4608C91.616 51.3179 91.5343 51.1953 91.4322 51.0932C91.3302 50.9911 91.1872 50.9094 91.0239 50.8481C90.8809 50.7869 90.6768 50.7869 90.4726 50.7869C90.2684 50.8073 90.0438 50.8686 89.7988 50.9707C89.5333 51.0932 89.3496 51.2157 89.2066 51.3587C89.0637 51.5017 88.9616 51.6446 88.9208 51.808C88.8799 51.9509 88.8595 52.1143 88.8799 52.2573C88.9003 52.4002 88.9412 52.5432 89.0024 52.6657C89.0637 52.7882 89.1454 52.9108 89.2679 53.0129C89.37 53.115 89.4721 53.1967 89.5742 53.2579C89.6762 53.3192 89.7783 53.3805 89.86 53.4213C89.9417 53.4622 90.0438 53.503 90.105 53.5234C90.1255 53.5643 90.1255 53.5847 90.1459 53.6255C89.8192 53.7685 89.5129 53.9319 89.1862 54.0748C89.1045 54.0136 89.0229 53.9523 88.9412 53.8706C88.8391 53.7889 88.7574 53.7277 88.6757 53.6255C88.5736 53.5234 88.492 53.4213 88.4103 53.3192C88.3695 53.2171 88.2878 53.0537 88.1857 52.8699Z" fill="#08216B"/>
<path fill-rule="evenodd" clip-rule="evenodd" d="M89.4722 55.6065C90.6564 55.2797 91.8203 54.953 93.0046 54.6058C92.8617 54.1769 92.7187 53.7685 92.5962 53.3396C92.8617 53.2579 93.1475 53.1967 93.4334 53.115C93.8213 54.3199 94.2093 55.5248 94.6177 56.7297C94.3522 56.8114 94.0663 56.8931 93.7805 56.9748C93.6376 56.5459 93.515 56.1375 93.3721 55.7086C92.1878 56.0353 91.024 56.3621 89.8397 56.7093C89.7172 56.3417 89.5947 55.9741 89.4722 55.6065Z" fill="#08216B"/>
<path fill-rule="evenodd" clip-rule="evenodd" d="M90.9422 62.2233C90.881 61.8557 90.8197 61.5085 90.7585 61.1409C91.759 60.998 92.7595 60.8754 93.7396 60.7325C92.637 60.3036 91.5548 59.8748 90.4522 59.4459C90.3909 59.0987 90.3297 58.772 90.2684 58.4248C91.7794 58.2206 93.2904 58.0164 94.8014 57.8121C94.8626 58.1797 94.9239 58.5473 95.0055 58.9149C94.1071 59.0375 93.2087 59.16 92.3103 59.2825C93.2904 59.691 94.2909 60.079 95.2914 60.4874C95.3527 60.8754 95.4343 61.2635 95.516 61.6311C93.9642 61.8149 92.4532 62.0191 90.9422 62.2233Z" fill="#08216B"/>
<path fill-rule="evenodd" clip-rule="evenodd" d="M90.9015 64C92.1266 64.0204 93.3721 64.0409 94.6177 64.0613C94.5973 63.6324 94.5973 63.1831 94.5973 62.7543C94.8831 62.7543 95.169 62.7543 95.4753 62.7747C95.4957 64.0204 95.5161 65.2866 95.5365 66.5324C95.2302 66.5324 94.9444 66.5324 94.6585 66.5119C94.6585 66.0831 94.6381 65.6338 94.6381 65.2049C93.3926 65.1845 92.147 65.1641 90.9015 65.1437C90.9015 64.7352 90.9015 64.3676 90.9015 64Z" fill="#08216B"/>
<path fill-rule="evenodd" clip-rule="evenodd" d="M94.7809 71.3315C93.6375 70.6371 92.4736 69.9428 91.3302 69.2484C91.126 69.1259 90.9831 69.0034 90.881 68.8604C90.7584 68.7379 90.6972 68.5949 90.6564 68.4724C90.6155 68.3499 90.5951 68.2069 90.5951 68.1048C90.5951 67.9823 90.5951 67.8597 90.6155 67.7168C90.6359 67.5738 90.6563 67.4309 90.6972 67.2471C90.738 67.0633 90.7584 66.9407 90.7789 66.8999C91.1056 66.9612 91.4323 67.002 91.7385 67.0633C91.7385 67.0837 91.7385 67.1041 91.7385 67.1245C91.7385 67.145 91.7181 67.1654 91.6977 67.2062C91.6773 67.2471 91.6773 67.2879 91.6569 67.3492C91.6364 67.39 91.6364 67.4513 91.616 67.4921C91.616 67.5534 91.5956 67.5942 91.5752 67.6351C91.5548 67.7576 91.5548 67.9006 91.5752 68.0231C91.5956 68.1456 91.6364 68.2273 91.7181 68.2886C92.9432 67.9414 94.1683 67.5942 95.3935 67.2471C95.3322 67.6555 95.271 68.0435 95.2301 68.4316C94.4542 68.6154 93.6987 68.8196 92.9228 69.0034C93.5966 69.3914 94.2704 69.7794 94.9443 70.1674C94.883 70.5759 94.8217 70.9435 94.7809 71.3315Z" fill="#08216B"/>
<path fill-rule="evenodd" clip-rule="evenodd" d="M89.6968 71.7196C90.9015 72.0872 92.1062 72.4548 93.3109 72.8428C93.4334 72.4343 93.5559 72.0055 93.6989 71.597C93.9847 71.6787 94.2706 71.7808 94.5564 71.8625C94.1889 73.047 93.8214 74.2519 93.4538 75.4364C93.168 75.3547 92.8821 75.273 92.5963 75.1709C92.7392 74.7625 92.8617 74.3336 92.9842 73.9252C91.7795 73.5576 90.5748 73.19 89.3701 72.8224C89.4722 72.4344 89.5947 72.0667 89.6968 71.7196Z" fill="#08216B"/>
<path d="M54.8628 95.307C54.189 95.307 53.6581 95.1027 53.2701 94.6943C52.8822 94.2858 52.678 93.714 52.678 92.9993C52.678 92.2845 52.8822 91.7331 53.2701 91.3042C53.6581 90.8754 54.189 90.6711 54.8628 90.6711C55.0465 90.6711 55.2099 90.6712 55.3324 90.6916C55.4753 90.712 55.6183 90.7324 55.7408 90.7733C55.8429 90.7937 55.945 90.8345 56.0675 90.8958C56.19 90.9571 56.2921 90.9979 56.3533 91.0387V92.1007H56.2308C56.1696 92.0598 56.1083 91.9986 56.0266 91.9373C55.945 91.876 55.8429 91.8148 55.7408 91.7331C55.6387 91.6514 55.5162 91.6106 55.3936 91.5697C55.2711 91.5289 55.1486 91.5085 55.0057 91.5085C54.8423 91.5085 54.6994 91.5289 54.5565 91.5901C54.4136 91.631 54.291 91.7331 54.1685 91.8556C54.0664 91.9782 53.9643 92.1211 53.9031 92.3253C53.8418 92.5091 53.801 92.7542 53.801 93.0197C53.801 93.3056 53.8418 93.5302 53.9031 93.714C53.9848 93.8978 54.0664 94.0612 54.189 94.1633C54.3115 94.2654 54.434 94.3471 54.5769 94.4084C54.7198 94.4492 54.8628 94.4901 55.0057 94.4901C55.1486 94.4901 55.2916 94.4697 55.4345 94.4084C55.5774 94.3471 55.6795 94.3063 55.7816 94.245C55.8837 94.1837 55.9654 94.1225 56.047 94.0612C56.1287 93.9999 56.19 93.9387 56.2512 93.8978H56.3533V94.9394C56.2716 94.9802 56.1696 95.021 56.0675 95.0619C55.9654 95.1027 55.8429 95.1436 55.7408 95.1844C55.5978 95.2253 55.4753 95.2661 55.3528 95.2865C55.2303 95.307 55.067 95.307 54.8628 95.307Z" fill="#08216B"/>
<path d="M61.0903 92.9993C61.0903 93.7141 60.9065 94.2859 60.5186 94.6943C60.1306 95.1028 59.5997 95.307 58.9463 95.307C58.2725 95.307 57.7416 95.1028 57.3741 94.6739C57.0066 94.245 56.8024 93.6936 56.8024 92.9789C56.8024 92.2641 56.9861 91.6923 57.3741 91.2838C57.762 90.8754 58.2929 90.6508 58.9463 90.6508C59.6201 90.6508 60.151 90.855 60.5186 91.2634C60.8861 91.7127 61.0903 92.2845 61.0903 92.9993ZM59.9264 92.9993C59.9264 92.7338 59.906 92.5092 59.8447 92.3254C59.7835 92.1416 59.7222 91.9782 59.6201 91.8761C59.518 91.7535 59.4159 91.6719 59.2934 91.6106C59.1709 91.5493 59.0484 91.5289 58.9259 91.5289C58.783 91.5289 58.6605 91.5493 58.5584 91.6106C58.4563 91.6719 58.3338 91.7535 58.2317 91.8761C58.15 91.9986 58.0683 92.1416 58.0071 92.3458C57.9458 92.5296 57.9254 92.7747 57.9254 93.0401C57.9254 93.3056 57.9458 93.5303 58.0071 93.7141C58.0683 93.8979 58.1296 94.0408 58.2317 94.1634C58.3338 94.2859 58.4359 94.3676 58.5584 94.4288C58.6809 94.4901 58.8034 94.5105 58.9259 94.5105C59.0484 94.5105 59.1913 94.4901 59.3139 94.4288C59.4364 94.3676 59.5385 94.2859 59.6406 94.1634C59.7426 94.0408 59.8039 93.8774 59.8652 93.7141C59.906 93.4894 59.9264 93.2648 59.9264 92.9993Z" fill="#08216B"/>
<path d="M66.971 92.1826C66.971 92.3868 66.9302 92.591 66.8689 92.7748C66.8077 92.9586 66.7056 93.122 66.5831 93.2445C66.5014 93.3262 66.4197 93.3875 66.338 93.4692C66.2564 93.5304 66.1543 93.5917 66.0317 93.6325C65.9297 93.6734 65.8071 93.7142 65.6642 93.7346C65.5417 93.7551 65.3988 93.7755 65.2354 93.7755H64.6433V95.2255H63.5203V90.7734H65.2558C65.5213 90.7734 65.7255 90.7939 65.9297 90.8347C66.1134 90.8756 66.2768 90.9572 66.4401 91.0594C66.6035 91.1615 66.7464 91.3248 66.8281 91.5086C66.9302 91.6924 66.971 91.9171 66.971 92.1826ZM65.8276 92.203C65.8276 92.0804 65.8071 91.9783 65.7459 91.8762C65.6846 91.7945 65.6234 91.7129 65.5213 91.6924C65.4192 91.6516 65.3171 91.6107 65.215 91.6107C65.1129 91.6107 64.9904 91.5903 64.8271 91.5903H64.6637V92.9178H64.7454C64.8475 92.9178 64.9496 92.9178 65.0517 92.9178C65.1538 92.9178 65.2354 92.9178 65.2967 92.8973C65.3579 92.8973 65.4192 92.8769 65.4804 92.8361C65.5417 92.8157 65.603 92.7748 65.6438 92.734C65.7255 92.6523 65.7663 92.591 65.8071 92.5093C65.8071 92.448 65.8276 92.3459 65.8276 92.203Z" fill="#08216B"/>
<path d="M67.0933 95.2255L68.6042 90.7734H69.8293L71.3403 95.2255H70.1969L69.911 94.3065H68.5021L68.2163 95.2255H67.0933ZM69.6456 93.51L69.1964 92.0396L68.7472 93.51H69.6456Z" fill="#08216B"/>
<path d="M75.5262 95.2255H74.4032V93.2445H72.8718V95.2255H71.7488V90.7734H72.8718V92.4072H74.4032V90.7734H75.5262V95.2255Z" fill="#08216B"/>
<path d="M76.9815 52.74L76.9406 52.52L72.8514 52.6L72.1153 51L69.2937 50.9L69.2528 45.66H68.4963L68.5372 50.86L66.922 50.8L66.6357 51.82L65.6543 52.24V52.74L60.1747 52.72L60.3792 45L54.4498 52.7H54L56.4331 56.86L74.5484 57L75.5911 54.7C75.7138 54.48 75.9387 54.34 76.1636 54.2C76.593 53.96 77.1042 53.66 76.9815 52.74ZM75.1004 54.5L74.2008 56.5L56.7398 56.36L54.8996 53.22L66.1859 53.26V52.58L66.6357 52.38V53.76H70.7045V51.72H67.2082L67.3104 51.32L71.7677 51.48L72.5242 53.1L76.4908 53.02C76.4703 53.42 76.225 53.58 75.8978 53.76C75.5911 53.94 75.2845 54.12 75.1004 54.5ZM70.1729 52.22V53.24H67.1469V52.22H70.1729ZM59.6431 52.66H55.1245L59.8067 46.58L59.6431 52.66Z" fill="#1A1B21"/>
<path fill-rule="evenodd" clip-rule="evenodd" d="M51.0203 68.4949C51.1014 68.4738 51.1825 68.4528 51.2636 68.4528C51.8112 68.5791 52.2574 68.5159 52.8252 68.4317C53.2308 68.558 53.8189 68.8738 54.2448 68.7896C54.3868 68.6633 54.407 68.558 54.5896 68.537C54.5896 68.5791 54.5896 68.6001 54.5896 68.6423C54.6504 68.6423 54.7113 68.6423 54.7924 68.6423C54.8735 68.6212 54.9546 68.6002 55.0155 68.5791C55.1574 68.4949 55.2994 68.4107 55.4616 68.3265C55.5427 68.3054 55.6239 68.3054 55.705 68.3054C55.7455 68.3265 55.8267 68.3475 55.8875 68.3686C55.9889 68.3054 55.9889 68.3054 56.0497 68.1581C56.5567 67.9476 57.0435 67.6739 57.4896 67.3581C58.2197 66.3266 58.9295 65.7372 60.0449 65.253C60.3491 65.0004 60.775 64.9372 61.1603 64.853C61.5862 64.4951 61.5862 64.4951 61.9512 64.0741C62.0121 64.0531 62.0729 64.032 62.154 64.032C62.3366 63.9899 62.9855 63.2952 63.1072 63.0426C63.1478 62.9795 63.2086 62.9163 63.2694 62.8321C63.5128 62.79 63.6345 62.6847 63.8981 62.7058C63.959 62.7268 64.0401 62.7479 64.1212 62.7689C64.2632 62.7689 64.4051 62.7479 64.5674 62.7479C64.5876 62.7268 64.5876 62.7058 64.6079 62.7058C64.689 62.6637 64.7702 62.6005 64.831 62.5584C64.831 62.5584 64.8513 62.5584 64.8716 62.5584C65.0338 62.4532 65.0338 62.4532 65.2569 62.4321C65.338 62.39 65.4191 62.369 65.48 62.3479C65.5205 62.3269 65.5408 62.3058 65.5814 62.3058C65.7233 62.2006 65.7233 62.2006 65.7842 62.0532C65.8856 61.99 65.9667 61.9479 66.0681 61.9058C66.1289 61.8637 66.1289 61.8637 66.1289 61.569C66.0884 61.548 66.0681 61.5059 66.0478 61.4848C65.8044 61.5059 65.703 61.6111 65.5002 61.7585C65.338 61.8006 65.338 61.8006 65.338 61.8427C65.2569 61.8637 65.1758 61.9058 65.1149 61.9269C65.0744 61.9479 65.0541 61.969 65.0135 61.99C64.7093 62.0742 64.5268 62.1163 64.2023 62.1163C64.2023 62.0742 64.2023 62.0742 63.959 62.1163C63.5939 62.2427 63.3708 62.369 63.1275 62.6637C63.0869 62.7268 63.0464 62.79 63.0058 62.8742C62.8841 62.811 62.7422 62.7479 62.6205 62.7058C62.6002 62.1795 64.5268 61.3585 64.973 61.2743C65.0541 61.2322 65.1352 61.2111 65.196 61.1901C65.2569 61.169 65.3177 61.169 65.3988 61.169C65.7233 61.0217 65.8247 60.6849 65.9667 60.348C66.5548 59.6112 67.4268 59.2323 68.1772 58.685C68.8059 58.1587 69.2723 57.4219 69.8402 56.8325C69.8605 56.7904 69.901 56.7272 69.9416 56.7062C70.1647 56.5799 70.2661 56.2009 70.3269 55.9483C70.5703 55.6536 70.8136 55.3799 71.0367 55.0852C71.057 55.0642 71.057 55.0431 71.0773 55.0431C71.6451 54.5379 72.0304 53.8853 72.4157 53.2327C72.5171 53.1695 72.5171 53.1695 72.5983 53.0432C73.1864 52.0959 73.7948 51.1697 74.2815 50.1592C74.3424 49.7803 74.3829 49.275 74.5857 48.9593C75.7011 48.7067 75.6808 47.5909 76.8165 48.1593C76.8571 48.2646 76.8774 48.3488 76.9382 48.454C76.9585 48.8961 76.9585 48.8961 76.999 48.8961C77.0193 49.3803 76.7151 49.7803 76.4718 50.1592C76.2487 50.7907 76.127 51.4223 75.6808 51.9275C75.5592 52.2222 75.4578 52.5169 75.3361 52.8327C75.255 52.9169 75.255 52.9169 75.2347 53.0853C75.1941 53.2116 75.1536 53.359 75.1333 53.5064C75.113 53.5906 75.0927 53.6748 75.0724 53.759C75.0319 53.759 75.0319 53.759 74.9913 54.0116C74.9102 54.1589 74.8088 54.3274 74.748 54.4958C74.6668 54.6852 74.5654 54.8536 74.4843 55.0431C73.957 55.3378 73.9773 55.4431 73.8151 56.0536C73.7745 56.0746 73.7745 56.0957 73.7542 56.0957C73.6325 56.2851 73.6326 56.2851 73.5312 56.5798C73.5109 56.622 73.5109 56.6641 73.4906 56.7062C73.4297 56.7693 73.4297 56.7693 73.3486 57.2745C73.3283 57.3798 73.3284 57.464 73.3081 57.5693C73.3284 57.8219 73.3486 58.0955 73.3689 58.3482C73.2878 58.4113 73.2269 58.4955 73.1661 58.5797C72.3346 59.1481 72.0304 61.0638 71.1989 61.3164C71.0975 60.6849 71.5031 60.1796 71.4017 59.6112C70.408 59.6533 70.0227 60.6217 69.4751 61.3374C69.6171 61.3374 70.0227 61.169 70.5703 61.0848C70.7528 61.2322 70.8542 61.4427 70.915 61.6532C70.8947 61.7374 70.915 61.8216 70.915 61.9058C70.7933 62.1374 70.6717 62.2637 70.4689 62.4111C70.2052 63.0426 69.9416 63.3163 69.4346 62.9373C69.0493 62.9584 68.6437 63.0005 68.3192 63.2742C68.2786 63.2742 68.2786 63.2742 68.2786 63.5478C68.1164 63.7583 68.0555 64.0741 67.8933 64.2636C67.1429 64.7688 66.3926 65.274 65.6422 65.7793C65.4191 65.7793 65.4191 65.7793 65.0946 65.653C65.0946 65.6109 65.0946 65.6109 64.8513 65.6109C64.8107 65.6109 64.7904 65.6319 64.7702 65.653C64.4862 65.7793 64.182 65.9056 63.9184 66.0529C62.9855 66.3266 62.2554 66.3477 61.9107 67.3371C61.5862 67.1476 61.282 66.9792 60.9778 66.8108C60.126 66.9371 60.0652 67.5476 59.8624 68.3054C59.4771 68.7054 59.254 69.0422 59.0106 69.5264C58.5645 69.8211 58.5645 69.8211 58.0777 70.2632C57.9966 70.2632 57.9358 70.2632 57.8749 70.2632C57.8547 70.2632 57.8344 70.2632 57.8344 70.2632C57.7127 70.2632 57.591 70.2843 57.4491 70.2843C57.4085 70.2843 57.3882 70.3053 57.3679 70.3264C56.7595 70.4527 56.1714 70.579 55.563 70.6C54.6504 70.8526 54.6504 70.8526 54.4476 70.8526C54.2245 70.8526 54.2245 70.8526 54.2245 70.9158C54.1637 70.9368 54.1028 70.9789 54.042 71C53.677 70.8316 53.3322 70.6842 52.9672 70.5158C52.1965 70.3474 51.5881 69.6106 51 69.1054C51.0608 68.958 51.0406 68.7265 51.0203 68.4949Z" fill="#5A84EF"/>
<path fill-rule="evenodd" clip-rule="evenodd" d="M76.9632 55.5113L83.9007 54.0621L84.188 54L84.2496 54.2898C86.4663 63.9996 83.5517 71.3492 78.3999 75.8625C76.0601 77.9121 73.2687 79.3613 70.272 80.1894C67.2959 81.0175 64.1145 81.2246 61.0152 80.7484C53.852 79.6511 47.0993 74.9308 44.1026 66.0906L44 65.8215L44.2668 65.7179L45.6831 65.1383L45.9704 65.014L46.0936 65.3039C48.6592 71.432 53.2568 74.9308 58.1417 76.0695C60.6663 76.6492 63.273 76.5871 65.695 75.9246C68.1169 75.2621 70.3952 73.9992 72.2424 72.1359C75.7112 68.6785 77.7431 63.1715 76.6964 55.8633L76.6553 55.5734L76.9632 55.5113Z" fill="#08216B"/>
<path fill-rule="evenodd" clip-rule="evenodd" d="M84.3263 55L77.8997 56.2927C78.8741 63.5033 76.7596 68.9365 73.1731 72.3904C71.2244 74.2688 68.8404 75.5614 66.2905 76.228C63.7406 76.8945 61.0042 76.9551 58.3506 76.3693C53.313 75.2585 48.5657 71.8046 45.8707 65.7857L45 66.129C47.9852 74.3496 54.5362 78.7325 61.5017 79.7626C64.5491 80.2069 67.6587 80.0252 70.6025 79.2374C73.5256 78.4497 76.262 77.0763 78.5631 75.1373C83.5385 70.9361 86.3786 64.089 84.3263 55Z" fill="#5A84EF"/>
<path fill-rule="evenodd" clip-rule="evenodd" d="M51.0368 63.4887L44.0993 64.9379L43.812 65L43.7504 64.7102C41.5337 55.0004 44.4483 47.6508 49.6001 43.1375C51.9399 41.0879 54.7313 39.6387 57.728 38.8106C60.7041 37.9825 63.8855 37.7754 66.9848 38.2516C74.148 39.3489 80.9007 44.0692 83.8974 52.9094L84 53.1785L83.7332 53.282L82.317 53.8617L82.0296 53.986L81.9064 53.6961C79.3408 47.568 74.7432 44.0692 69.8583 42.9305C67.3337 42.3508 64.727 42.4129 62.305 43.0754C59.8831 43.7379 57.6048 45.0008 55.7576 46.8641C52.2888 50.3215 50.2569 55.8285 51.3036 63.1367L51.3447 63.4266L51.0368 63.4887Z" fill="#08216B"/>
<path fill-rule="evenodd" clip-rule="evenodd" d="M43.6737 64L50.1003 62.7073C49.1259 55.4967 51.2404 50.0635 54.8269 46.6096C56.7756 44.7312 59.1596 43.4386 61.7095 42.772C64.2594 42.1055 66.9958 42.0449 69.6494 42.6307C74.687 43.7415 79.4343 47.1954 82.1293 53.2143L83 52.871C80.0148 44.6504 73.4638 40.2675 66.4983 39.2374C63.4509 38.7931 60.3413 38.9748 57.3975 39.7626C54.4744 40.5503 51.738 41.9237 49.4369 43.8627C44.4615 48.0639 41.6214 54.911 43.6737 64Z" fill="#5A84EF"/>
<path fill-rule="evenodd" clip-rule="evenodd" d="M41.6996 64.0466C41.6789 64.0046 41.6789 63.9836 41.6789 63.9416C41.5758 63.5846 41.4934 63.2485 41.3903 62.9335C41.349 62.8495 41.3078 62.8075 41.2872 62.7864C41.2665 62.7864 41.2459 62.7864 41.2047 62.8075C41.1428 62.8495 41.0603 62.8915 40.9985 62.9755C40.7716 63.2275 40.6273 63.6056 40.6685 63.9626C40.8129 64.0256 40.9778 64.0886 41.1428 64.1937L41.1634 64.2147L41.1841 64.2357C41.7202 64.6347 41.9058 66.315 42.0914 67.9532C42.1326 68.3943 42.1945 68.8353 42.2357 69.2554C42.2976 69.2134 42.3594 69.1924 42.4007 69.1504C42.6687 69.0243 42.9162 69.0033 43.1842 69.0453C43.3904 69.0874 43.576 69.1714 43.741 69.2764C42.6894 67.6802 42.2151 65.9369 41.7408 64.2357L41.6996 64.0466ZM57 88.1791C57 88.3891 56.835 88.5782 56.6288 88.5782C56.4226 88.5782 56.237 88.4101 56.237 88.2001C56.2164 87.675 56.1546 87.066 56.0721 86.4569C55.969 85.5537 55.8659 84.6926 55.9484 84.1255V84.0835V84.0625C56.237 83.0544 55.8865 82.1512 55.5772 81.3741L55.5566 81.2901C55.3916 80.8701 55.3091 80.471 55.206 79.9669C55.1442 79.6099 55.0617 79.2108 54.9173 78.7277C54.8555 78.5177 54.9792 78.3077 55.1854 78.2447C55.3916 78.1817 55.5978 78.3077 55.6597 78.5177C55.804 79.0428 55.8865 79.4629 55.9484 79.8199C56.0308 80.261 56.1133 80.639 56.2577 80.9961L56.2989 81.0801C56.6495 81.9622 57.0412 83.0124 56.6907 84.2725C56.6288 84.7346 56.7113 85.5327 56.8144 86.3518C56.8969 86.9819 56.9794 87.591 57 88.1791ZM50.0509 88.6412C50.0303 88.8512 49.8447 89.0192 49.6385 88.9982C49.4323 88.9772 49.2673 88.7882 49.2879 88.5782C49.3498 87.8851 49.3085 87.234 49.1848 86.5829C49.0405 85.9318 48.8136 85.2807 48.4631 84.5666C48.4425 84.5036 48.4219 84.4406 48.4219 84.3776C48.3394 84.3145 48.2363 84.2515 48.1538 84.1885C45.968 82.6133 42.9162 80.1139 42.3388 79.3788C39.5756 75.8503 39.4313 72.8679 39.2663 69.9065C39.2251 69.2134 39.2045 68.4993 39.122 67.8062V67.7852C39.122 67.6171 39.1014 67.4071 39.0808 67.1551C38.9983 66.2729 38.8952 65.0968 39.2457 64.4457C39.3901 64.1726 39.5963 63.9836 39.885 63.8996C39.885 63.3535 40.1118 62.8074 40.4417 62.4504C40.5861 62.3034 40.751 62.1774 40.8954 62.0933C41.1016 62.0093 41.3078 61.9673 41.4934 62.0303C41.7614 62.0933 41.9883 62.3034 42.1326 62.6394V62.6604V62.6814C42.1532 62.7444 42.1738 62.8074 42.1945 62.8705C42.4007 62.7444 42.6481 62.7234 42.8956 62.7444C43.1018 62.7654 43.2667 62.9755 43.2461 63.1855C43.2255 63.3955 43.0193 63.5636 42.8131 63.5426C42.71 63.5216 42.6275 63.5426 42.5862 63.5636C42.545 63.6056 42.5038 63.6896 42.4831 63.8576L42.5244 64.0046C42.978 65.6849 43.4523 67.4071 44.4833 68.9193C44.6071 69.1084 44.5658 69.3394 44.3802 69.4654C44.2978 69.5284 44.174 69.5494 44.0709 69.5284C44.1946 69.6544 44.2978 69.8225 44.3802 69.9905C44.9988 71.3767 45.9474 72.6159 46.9372 73.897C47.1228 74.1491 47.329 74.4011 47.5764 74.7372C47.9063 75.1782 48.1538 75.1362 48.4631 75.0732C48.793 75.0102 49.1848 74.9472 49.7416 75.1152C50.5458 75.3673 51.4737 75.8923 52.3604 76.5434C52.546 76.6694 52.7109 76.7955 52.8553 76.9215C52.9996 77.0475 53.1646 77.1735 53.3295 77.3205L53.3502 77.3415L53.3708 77.3625C53.9275 78.0556 54.2368 78.8538 54.5462 79.6729C54.6905 80.0509 54.8348 80.429 54.9998 80.807C55.0823 80.9961 54.9998 81.2481 54.8142 81.3321C54.6286 81.4161 54.3812 81.3321 54.2987 81.1431C54.1131 80.744 53.9688 80.345 53.8244 79.9669C53.5358 79.2108 53.2677 78.4757 52.7934 77.8876C52.6697 77.7826 52.5253 77.6566 52.381 77.5306C52.216 77.4046 52.0511 77.2785 51.9067 77.1735C51.1025 76.5854 50.2365 76.0814 49.5354 75.8713C49.1642 75.7663 48.8755 75.8083 48.6281 75.8503C48.0713 75.9553 47.6177 76.0394 46.999 75.2202C46.8341 74.9892 46.5866 74.6952 46.3598 74.3801C45.3494 73.0569 44.3596 71.7967 43.6998 70.3055C43.6379 70.1585 43.5348 70.0325 43.4317 69.9485C43.3286 69.8645 43.2255 69.8015 43.1018 69.8015C42.9987 69.7805 42.8956 69.8015 42.7925 69.8435C42.71 69.8855 42.6069 69.9695 42.5244 70.0745C42.4831 70.1165 42.4625 70.1375 42.4213 70.1795C42.4213 70.4105 42.4213 70.6626 42.4007 70.9356C42.3594 71.6077 42.3182 72.4268 42.5862 73.372V73.393C43.0193 74.2121 43.3492 74.8422 43.4111 75.6613C43.4111 75.7873 43.4317 75.9133 43.4523 76.0184C43.4729 76.1444 43.4936 76.2494 43.5348 76.3964C43.6998 77.0475 44.0091 77.7196 44.504 78.3287C44.6483 78.4967 44.6071 78.7488 44.4421 78.8958C44.2771 79.0428 44.0297 79.0008 43.8853 78.8328C43.3286 78.1187 42.9574 77.3415 42.7718 76.5854C42.7306 76.4384 42.71 76.2914 42.6893 76.1444C42.6687 75.9974 42.6481 75.8503 42.6481 75.7033C42.5862 75.0522 42.2976 74.4851 41.9058 73.75L41.8852 73.708L41.8645 73.687L41.8439 73.645C41.4934 72.5529 41.5552 71.6287 41.5965 70.8936C41.6171 70.5156 41.6377 70.2005 41.5965 69.9695C41.4934 69.4234 41.4315 68.7303 41.349 68.0372C41.1841 66.588 41.0191 65.0968 40.7716 64.8867C40.2767 64.6137 40.0499 64.6347 39.9468 64.8237C39.6994 65.2648 39.8025 66.315 39.8643 67.0921C39.885 67.3441 39.9056 67.5751 39.9262 67.7432C39.9881 68.4573 40.0293 69.1714 40.0705 69.8645C40.2149 72.7209 40.3592 75.5563 42.9574 78.8748C43.4729 79.5469 46.4629 81.9832 48.6074 83.5374C49.0199 83.8315 49.4116 84.1045 49.7416 84.3146C50.0509 84.5246 50.3189 84.6716 50.4839 84.7556C50.6901 84.8396 50.7726 85.0707 50.6901 85.2807C50.6076 85.4907 50.3808 85.5747 50.1746 85.4907C50.0303 85.4277 49.8241 85.3227 49.5972 85.1757C49.7622 85.5957 49.8859 86.0158 49.9684 86.4359C50.0715 87.15 50.1127 87.8851 50.0509 88.6412Z" fill="#08216B"/>
<path fill-rule="evenodd" clip-rule="evenodd" d="M87.0951 64.035C87.1163 63.9934 87.1163 63.9726 87.1163 63.9309C87.2014 63.577 87.2865 63.2439 87.3929 62.9108C87.4355 62.8275 87.4567 62.7858 87.4993 62.765C87.5206 62.765 87.5418 62.765 87.5844 62.7858C87.6695 62.8275 87.7333 62.8691 87.8184 62.9524C88.0524 63.1814 88.2226 63.577 88.2014 63.9101C88.0524 63.9726 87.8822 64.0559 87.712 64.1391L87.6908 64.16L87.6695 64.1808C87.1163 64.5764 86.9887 66.2628 86.8398 67.8867C86.7972 68.324 86.7547 68.782 86.7121 69.1776C86.6483 69.1359 86.5845 69.1151 86.5419 69.0943C86.2654 68.9694 85.9888 68.9486 85.7335 69.011C85.5208 69.0527 85.3293 69.1359 85.1591 69.2609C86.2015 67.6369 86.6483 65.9088 87.0738 64.2016L87.0951 64.035ZM72.0113 88.3945C72.0113 88.6027 72.1815 88.79 72.4156 88.79C72.6283 88.79 72.8198 88.6235 72.8198 88.3945C72.8198 87.874 72.8836 87.2702 72.9262 86.6664C73.0113 85.7711 73.0964 84.9175 72.9687 84.3554V84.3137V84.2929C72.6496 83.2936 72.99 82.3983 73.2666 81.6071L73.2878 81.5239C73.458 81.1075 73.5218 80.7119 73.6069 80.2122C73.6708 79.8583 73.7346 79.4627 73.8622 78.963C73.9048 78.7548 73.7771 78.5466 73.5644 78.4841C73.3516 78.4425 73.1389 78.5674 73.0751 78.7756C72.9474 79.2961 72.8836 79.7125 72.7985 80.0665C72.7134 80.5245 72.6496 80.8784 72.5219 81.2324L72.4794 81.3157C72.1603 82.2109 71.7773 83.2519 72.1603 84.4803C72.2454 84.9383 72.1603 85.7295 72.0964 86.5623C72.0752 87.1869 72.0113 87.8115 72.0113 88.3945ZM79.1809 88.6443C79.2022 88.8525 79.3936 89.0191 79.6277 88.9982C79.8404 88.9774 80.0106 88.79 79.9893 88.561C79.9042 87.874 79.9255 87.2285 80.0532 86.5831C80.1808 85.9377 80.3936 85.2715 80.7552 84.5636C80.7765 84.5011 80.7978 84.4387 80.7978 84.3762C80.8829 84.3137 80.9892 84.2513 81.0743 84.168C83.2869 82.544 86.3717 79.9832 86.9249 79.2337C89.6906 75.6734 89.7544 72.717 89.8182 69.7605C89.8395 69.0735 89.8395 68.3656 89.9033 67.6785V67.6577C89.9033 67.4912 89.9246 67.283 89.9459 67.0331C90.0097 66.1587 90.0948 64.9928 89.6906 64.3473C89.5204 64.0767 89.3076 63.8893 89.0098 63.8268C89.0098 63.2855 88.7332 62.765 88.4141 62.4111C88.2652 62.2653 88.095 62.1404 87.9248 62.078C87.712 61.9947 87.4993 61.9739 87.3078 62.0363C87.0312 62.1196 86.8185 62.307 86.6696 62.6609V62.6817V62.7026C86.6483 62.765 86.627 62.8275 86.627 62.8899C86.4143 62.765 86.159 62.7442 85.8824 62.7858C85.6697 62.8275 85.5207 63.0149 85.542 63.2231C85.5846 63.4313 85.776 63.577 85.9888 63.5562C86.0952 63.5354 86.1803 63.5354 86.2228 63.577C86.2654 63.6186 86.3079 63.7019 86.3505 63.8685L86.3079 64.0142C85.8824 65.7006 85.4569 67.4079 84.4145 68.9486C84.2868 69.1359 84.3506 69.365 84.5208 69.4899C84.6272 69.5523 84.7336 69.5732 84.84 69.5523C84.7123 69.6773 84.6272 69.8438 84.5421 70.0104C83.9464 71.4053 83.0103 72.6545 82.0104 73.9454C81.819 74.1952 81.6275 74.445 81.3722 74.799C81.0318 75.2362 80.7978 75.1946 80.4787 75.1529C80.1383 75.1113 79.734 75.0488 79.1596 75.2362C78.3512 75.5069 77.3938 76.069 76.5003 76.7144C76.3088 76.8602 76.1599 76.9851 76.011 77.11C75.8621 77.2349 75.6919 77.3807 75.5429 77.5056L75.5217 77.5264L75.5004 77.5472C74.9472 78.2551 74.6494 79.0463 74.3516 79.8791C74.2239 80.2538 74.075 80.6494 73.9048 81.0034C73.8197 81.2116 73.9048 81.4406 74.1175 81.5239C74.3303 81.6071 74.5643 81.5239 74.6494 81.3157C74.8196 80.9201 74.9685 80.5245 75.1174 80.1289C75.394 79.3794 75.6493 78.6507 76.1174 78.0469C76.245 77.922 76.3939 77.8179 76.5428 77.693C76.713 77.5681 76.862 77.4431 77.0109 77.3182C77.8193 76.7144 78.6916 76.1939 79.4362 75.9649C79.8191 75.84 80.117 75.8816 80.3723 75.9233C80.9467 76.0065 81.4147 76.069 82.0317 75.257C82.2019 75.028 82.4359 74.7157 82.6699 74.4034C83.6911 73.0709 84.6698 71.7801 85.2867 70.281C85.3506 70.1353 85.4569 70.0104 85.5633 69.9271C85.6697 69.8438 85.776 69.7814 85.9037 69.7605C86.0101 69.7397 86.1164 69.7397 86.2228 69.8022C86.3292 69.8438 86.4143 69.9271 86.5207 70.0312C86.5632 70.0728 86.5845 70.0937 86.6483 70.1145C86.6483 70.3435 86.6696 70.5933 86.6909 70.864C86.7547 71.5302 86.8185 72.3422 86.5632 73.2791V73.3C86.1377 74.1119 85.8186 74.7574 85.776 75.5693C85.776 75.6943 85.7548 75.8192 85.7548 75.9233C85.7335 76.0482 85.7122 76.1731 85.6909 76.298C85.542 76.9435 85.2442 77.6097 84.7336 78.2551C84.6059 78.4217 84.6272 78.6715 84.8187 78.7964C84.9889 78.9214 85.2442 78.9005 85.3718 78.7132C85.9462 77.9845 86.2866 77.2141 86.4568 76.4646C86.4994 76.3189 86.5207 76.1731 86.5419 76.0274C86.5632 75.8816 86.5845 75.7359 86.5845 75.5902C86.627 74.9447 86.9249 74.3618 87.2865 73.6331L87.3078 73.5914L87.3291 73.5706L87.3504 73.529C87.6695 72.4463 87.5844 71.5302 87.5206 70.8015C87.478 70.4268 87.4567 70.1145 87.4993 69.8855C87.5844 69.3441 87.6482 68.6571 87.6908 67.97C87.8184 66.5334 87.9461 65.0552 88.2014 64.847C88.6907 64.5555 88.946 64.5764 89.0523 64.7637C89.3076 65.201 89.2438 66.2211 89.2013 66.9915C89.18 67.2413 89.1587 67.4703 89.1587 67.6577C89.1162 68.3656 89.0949 69.0735 89.0736 69.7605C89.0098 72.5921 88.946 75.4236 86.3505 78.7756C85.8399 79.4627 82.8189 81.9611 80.6489 83.5434C80.2234 83.8557 79.8404 84.1264 79.5 84.3346C79.1809 84.5428 78.9256 84.7093 78.7341 84.7926C78.5427 84.8759 78.4363 85.1257 78.5427 85.3131C78.6278 85.5005 78.8831 85.6046 79.0745 85.5005C79.2235 85.438 79.4362 85.3131 79.6489 85.1674C79.5 85.5838 79.3724 86.0002 79.3086 86.4166C79.1171 87.1661 79.0958 87.874 79.1809 88.6443Z" fill="#08216B"/>
</svg>
