<svg width="24" height="24" viewBox="0 0 24 24" fill="none" xmlns="http://www.w3.org/2000/svg">
<path d="M19.25 16.4501L17.75 14.9001C18.4167 14.7167 18.9584 14.3625 19.375 13.8376C19.7917 13.3126 20 12.7 20 12C20 11.1667 19.7084 10.4584 19.125 9.87505C18.5417 9.29172 17.8334 9.00005 17 9.00005H13V7.00005H17C18.3834 7.00005 19.5625 7.48755 20.5375 8.46255C21.5125 9.43755 22 10.6167 22 12C22 12.95 21.7542 13.825 21.2625 14.625C20.7709 15.425 20.1 16.0334 19.25 16.4501ZM15.85 13L13.85 11H16V13H15.85ZM19.8 22.6L1.40002 4.20005L2.80002 2.80005L21.2 21.2001L19.8 22.6ZM11 17.0001H7.00002C5.61669 17.0001 4.43752 16.5126 3.46252 15.5375C2.48752 14.5625 2.00002 13.3834 2.00002 12C2.00002 10.85 2.35002 9.82505 3.05002 8.92505C3.75002 8.02505 4.65002 7.43338 5.75002 7.15005L7.60002 9.00005H7.00002C6.16669 9.00005 5.45836 9.29172 4.87502 9.87505C4.29169 10.4584 4.00002 11.1667 4.00002 12C4.00002 12.8334 4.29169 13.5417 4.87502 14.125C5.45836 14.7084 6.16669 15 7.00002 15H11V17.0001ZM8.00002 13V11H9.62502L11.6 13H8.00002Z" fill="#1A1B21"/>
</svg>
