<svg width="20" height="20" viewBox="0 0 20 20" fill="none" xmlns="http://www.w3.org/2000/svg">
<path d="M9.99992 16.6667C9.33325 16.139 8.61103 15.7292 7.83325 15.4376C7.05547 15.1459 6.24992 15.0001 5.41659 15.0001C4.83325 15.0001 4.26034 15.0765 3.69784 15.2292C3.13534 15.382 2.59714 15.5973 2.08325 15.8751C1.79159 16.0279 1.51034 16.0209 1.2395 15.8542C0.968669 15.6876 0.833252 15.4445 0.833252 15.1251V5.08341C0.833252 4.93064 0.871446 4.7848 0.947835 4.64591C1.02422 4.50703 1.13881 4.40286 1.29159 4.33341C1.93047 4.00008 2.59714 3.75008 3.29159 3.58341C3.98603 3.41675 4.69436 3.33341 5.41659 3.33341C6.44436 3.33341 7.31936 3.45147 8.04159 3.68758C8.76381 3.92369 9.54159 4.2848 10.3749 4.77091C10.5277 4.85425 10.6423 4.95147 10.7187 5.06258C10.7951 5.17369 10.8333 5.31953 10.8333 5.50008V14.2084C11.4444 13.9167 12.0589 13.698 12.677 13.5522C13.2951 13.4063 13.9305 13.3334 14.5833 13.3334C15.0833 13.3334 15.5728 13.3751 16.052 13.4584C16.5312 13.5417 17.0138 13.6667 17.4999 13.8334V3.81258C17.7083 3.88203 17.9131 3.95841 18.1145 4.04175C18.3159 4.12508 18.5138 4.2223 18.7083 4.33341C18.861 4.40286 18.9756 4.50703 19.052 4.64591C19.1284 4.7848 19.1666 4.93064 19.1666 5.08341V15.1251C19.1666 15.4445 19.0312 15.6876 18.7603 15.8542C18.4895 16.0209 18.2083 16.0279 17.9166 15.8751C17.4027 15.5973 16.8645 15.382 16.302 15.2292C15.7395 15.0765 15.1666 15.0001 14.5833 15.0001C13.7499 15.0001 12.9444 15.1459 12.1666 15.4376C11.3888 15.7292 10.6666 16.139 9.99992 16.6667ZM12.9166 11.6667V2.50008L15.4166 1.66675V10.8334L12.9166 11.6667Z" fill="#424659"/>
</svg>
