<svg width="128" height="128" viewBox="0 0 128 128" fill="none" xmlns="http://www.w3.org/2000/svg">
<path d="M93.0507 82.2886C91.586 82.7203 89.4355 82.7689 87.1299 82.435C84.6554 82.0768 82.1314 81.3217 79.6506 80.209C84.0745 79.5664 87.5064 79.7644 90.4419 80.8027C91.1373 81.0487 92.2796 81.7063 93.0507 82.2886ZM68.3679 78.2377C68.1879 78.2866 68.0106 78.3328 67.8341 78.3817C66.6438 78.7051 65.4856 79.0207 64.3695 79.3015L62.8645 79.6825C59.837 80.4472 56.7417 81.2284 53.6845 82.1587C54.8463 79.3618 55.9258 76.534 56.9827 73.7692C57.7652 71.7226 58.5643 69.6319 59.3908 67.5682C59.81 68.2594 60.2475 68.9509 60.7028 69.6442C62.777 72.7978 65.3843 75.7135 68.3679 78.2377ZM60.6671 46.6978C60.8633 50.149 60.1174 53.4691 59.0232 56.6542C57.6754 52.7158 57.0473 48.3667 58.7323 44.8555C59.1645 43.9555 59.5185 43.4743 59.7481 43.2232C60.1027 43.7698 60.5691 44.9926 60.6671 46.6978ZM44.8621 90.4162C44.1048 91.7686 43.3318 93.0346 42.5395 94.2301C40.6276 97.1065 37.5007 100.186 35.8944 100.186C35.7363 100.186 35.545 100.161 35.2655 99.8662C35.0856 99.6778 35.0568 99.5428 35.0655 99.3586C35.1196 98.3011 36.5233 96.4177 38.5566 94.6714C40.4021 93.0871 42.4881 91.6786 44.8621 90.4162ZM98.1656 82.4383C97.92 78.9157 91.98 76.6558 91.9214 76.6348C89.6251 75.8221 87.1305 75.4273 84.2954 75.4273C81.2604 75.4273 77.9884 75.8656 73.7862 76.8457C70.0472 74.1997 66.8172 70.8871 64.404 67.2199C63.3384 65.5996 62.3803 63.9823 61.5452 62.4025C63.5839 57.5362 65.4198 52.3039 65.0862 46.4437C64.8172 41.7448 62.6947 38.5885 59.8082 38.5885C57.8281 38.5885 56.1232 40.0525 54.7369 42.9439C52.2639 48.0961 52.914 54.6886 56.6681 62.5552C55.316 65.7253 54.0598 69.0118 52.8439 72.1933C51.3311 76.1494 49.7723 80.2309 48.0155 84.1135C43.0886 86.0596 39.041 88.4197 35.6678 91.3171C33.458 93.2119 30.794 96.1084 30.642 99.1321C30.5677 100.556 31.0569 101.862 32.0508 102.909C33.1068 104.019 34.4335 104.604 35.8923 104.606C40.7101 104.606 45.3472 97.9981 46.2268 96.6727C47.9972 94.0087 49.6542 91.0372 51.2779 87.6097C55.3674 86.1343 59.7255 85.033 63.9496 83.9686L65.4624 83.5849C66.5996 83.2963 67.7816 82.9771 68.9939 82.6459C70.2768 82.2997 71.5966 81.9406 72.9382 81.5995C77.2756 84.3532 81.9399 86.1493 86.4889 86.8084C90.3205 87.3649 93.7233 87.0421 96.0268 85.8433C98.0994 84.7657 98.2136 83.1028 98.1656 82.4383ZM107.496 112.728C107.496 119.18 101.801 119.577 100.651 119.59H27.1656C20.7267 119.59 20.3389 113.865 20.3266 112.728L20.3258 15.2693C20.3258 8.8117 26.032 8.4202 27.1648 8.40724H76.8059L76.8323 8.4334V27.7719C76.8323 31.6529 79.1827 39.0007 88.0837 39.0007H107.33L107.496 39.1654L107.496 112.728ZM102.934 34.5928H88.087C81.6499 34.5928 81.2604 28.8991 81.2517 27.7725V12.8592L102.934 34.5928ZM111.912 112.728V37.3471L81.2517 6.61307V6.47007H81.1051L78.6426 4H27.1658C23.273 4 15.9116 6.35601 15.9116 15.2713V112.73C15.9116 116.628 18.2646 124 27.1658 124H100.658C104.55 123.999 111.912 121.643 111.912 112.728Z" fill="#CD3737"/>
</svg>
