<svg width="24" height="24" viewBox="0 0 24 24" fill="none" xmlns="http://www.w3.org/2000/svg">
<path fill-rule="evenodd" clip-rule="evenodd" d="M14 2H6C4.9 2 4 2.9 4 4V20C4 21.1 4.89 22 5.99 22H18C19.1 22 20 21.1 20 20V8L14 2ZM18 20H6V4H13V9H18V20Z" fill="#1A1B21"/>
<path fill-rule="evenodd" clip-rule="evenodd" d="M12 16.5V13.5H13V16.5H12ZM14 16.5V13.5C14 12.95 13.55 12.5 13 12.5H11V17.5H13C13.55 17.5 14 17.05 14 16.5Z" fill="#1A1B21"/>
<path fill-rule="evenodd" clip-rule="evenodd" d="M10 14.5C10 15.05 9.55 15.5 9 15.5H8V17.5H7V12.5H9C9.55 12.5 10 12.95 10 13.5V14.5ZM8 13.5V14.5H9V13.5H8Z" fill="#1A1B21"/>
<path fill-rule="evenodd" clip-rule="evenodd" d="M16 13.5V14.5H17V15.5H16V17.5H15V12.5H17V13.5H16Z" fill="#1A1B21"/>
</svg>
