<svg width="24" height="24" viewBox="0 0 24 24" fill="none" xmlns="http://www.w3.org/2000/svg">
<path d="M8.59998 17.75V8.6H5.59998V7H13.3V8.6H10.3V17.75H8.59998ZM17.2 18C16.4666 18 15.8916 17.7875 15.475 17.3625C15.0583 16.9375 14.85 16.35 14.85 15.6V11.55H13.5V10.1H14.85V7.925H16.5V10.1H18.35V11.55H16.5V15.25C16.5 15.6333 16.5875 15.9333 16.7625 16.15C16.9375 16.3667 17.175 16.475 17.475 16.475C17.625 16.475 17.7791 16.4458 17.9375 16.3875C18.0958 16.3292 18.25 16.25 18.4 16.15V17.775C18.2333 17.8583 18.05 17.9167 17.85 17.95C17.65 17.9833 17.4333 18 17.2 18Z" fill="#1A1B21"/>
</svg>
